<svg width="47" height="53" viewBox="0 0 47 53" fill="none" xmlns="http://www.w3.org/2000/svg">
<rect width="47" height="53" fill="#272727"/>
<g id="Onboarding">
<path d="M-11589 -9898.5C-11589 -9899.6 -11588.1 -9900.5 -11587 -9900.5H18919C18920.1 -9900.5 18921 -9899.6 18921 -9898.5V5811.5C18921 5812.6 18920.1 5813.5 18919 5813.5H-11587C-11588.1 5813.5 -11589 5812.6 -11589 5811.5V-9898.5Z" fill="#444444"/>
<path d="M-11587 -9900.5V-9899.5H18919V-9900.5V-9901.5H-11587V-9900.5ZM18921 -9898.5H18920V5811.5H18921H18922V-9898.5H18921ZM18919 5813.5V5812.5H-11587V5813.5V5814.5H18919V5813.5ZM-11589 5811.5H-11588V-9898.5H-11589H-11590V5811.5H-11589ZM-11587 5813.5V5812.5C-11587.6 5812.5 -11588 5812.05 -11588 5811.5H-11589H-11590C-11590 5813.16 -11588.7 5814.5 -11587 5814.5V5813.5ZM18921 5811.5H18920C18920 5812.05 18919.6 5812.5 18919 5812.5V5813.5V5814.5C18920.7 5814.5 18922 5813.16 18922 5811.5H18921ZM18919 -9900.5V-9899.5C18919.6 -9899.5 18920 -9899.05 18920 -9898.5H18921H18922C18922 -9900.16 18920.7 -9901.5 18919 -9901.5V-9900.5ZM-11587 -9900.5V-9901.5C-11588.7 -9901.5 -11590 -9900.16 -11590 -9898.5H-11589H-11588C-11588 -9899.05 -11587.6 -9899.5 -11587 -9899.5V-9900.5Z" fill="white" fill-opacity="0.1"/>
<g id="Screens">
<g id="Body">
<path d="M-667 -262.5C-667 -292.67 -667 -307.755 -657.627 -317.127C-648.255 -326.5 -633.17 -326.5 -603 -326.5H741C771.17 -326.5 786.255 -326.5 795.627 -317.127C805 -307.755 805 -292.67 805 -262.5V409.5C805 439.67 805 454.755 795.627 464.127C786.255 473.5 771.17 473.5 741 473.5H-603C-633.17 473.5 -648.255 473.5 -657.627 464.127C-667 454.755 -667 439.67 -667 409.5V-262.5Z" fill="#0F1014" fill-opacity="0.72"/>
<g id="Form">
<g id="Section Header">
<g id="skills">
<g id="Card/skill">
<path d="M-12 10C-12 3.93883 -12 0.908249 -10.9304 -1.45248C-9.72885 -4.10428 -7.60428 -6.22885 -4.95248 -7.43037C-2.59175 -8.5 0.438832 -8.5 6.5 -8.5H243.5C249.561 -8.5 252.592 -8.5 254.952 -7.43037C257.604 -6.22885 259.729 -4.10428 260.93 -1.45248C262 0.908249 262 3.93883 262 10C262 16.0612 262 19.0918 260.93 21.4525C259.729 24.1043 257.604 26.2289 254.952 27.4304C252.592 28.5 249.561 28.5 243.5 28.5H6.5C0.438831 28.5 -2.59175 28.5 -4.95248 27.4304C-7.60428 26.2289 -9.72885 24.1043 -10.9304 21.4525C-12 19.0918 -12 16.0612 -12 10Z" fill="#454C5E" fill-opacity="0.16"/>
<g id="Illustrations">
<g id="Illustrations/Skill Hugo/Closing and Objection Handling">
<g id="market">
<rect id="Rectangle" x="2.97266" y="14.2812" width="47.2431" height="39.1189" fill="#DFE1E6"/>
<path id="Path" d="M20.2265 50.7649H1.21484V49.7131C1.21484 49.4228 1.45083 49.1875 1.74193 49.1875H19.6994C19.9905 49.1875 20.2265 49.4228 20.2265 49.7131V50.7649Z" fill="#4B5266"/>
<path id="Path_2" d="M5.55464 3.33789H2.53116L0.207031 5.86093H4.16017L5.55464 3.33789Z" fill="#5DC389"/>
<path id="Path_3" d="M0.207031 10.0742V12.1503C0.207031 13.2389 1.09196 14.1213 2.18358 14.1213C3.2752 14.1213 4.16013 13.2388 4.16013 12.1503V10.0742H0.207031Z" fill="#18A957"/>
<path id="Path_4" d="M10.7617 10.0742V12.1503C10.7617 13.2389 11.6466 14.1213 12.7383 14.1213C13.8299 14.1213 14.7148 13.2388 14.7148 12.1503V10.0742H10.7617Z" fill="#DF1642"/>
<path id="Path_5" d="M14.7148 5.86093L15.1797 3.33789H12.1562L10.7617 5.86093H14.7148Z" fill="#E95C7B"/>
<path id="Path_6" d="M21.3164 10.0742V12.1503C21.3164 13.2389 22.2013 14.1213 23.293 14.1213C24.3846 14.1213 25.2695 13.2388 25.2695 12.1503V10.0742H21.3164Z" fill="#00CEE6"/>
<path id="Path_7" d="M25.2695 5.86093L24.8047 3.33789H21.7812L21.3164 5.86093H25.2695Z" fill="#33E2F7"/>
<path id="Path_8" d="M31.8711 10.0742V12.1503C31.8711 13.2389 32.756 14.1213 33.8476 14.1213C34.9393 14.1213 35.8242 13.2388 35.8242 12.1503V10.0742H31.8711Z" fill="#FFBB38"/>
<path id="Path_9" d="M35.0468 5.86093L33.6524 3.33789H30.6289L31.0937 5.86093H35.0468Z" fill="#FFCF74"/>
<path id="Path_10" d="M44.0507 5.86093L41.7266 3.33789H38.7031L40.0976 5.86093H44.0507Z" fill="#5E6780"/>
<path id="Path_11" d="M42.4258 10.0742V12.1503C42.4258 13.2389 43.3107 14.1213 44.4023 14.1213C45.494 14.1213 46.3789 13.2388 46.3789 12.1503V10.0742H42.4258Z" fill="#4B5266"/>
<g id="Group">
<rect id="Rectangle_2" x="5.48438" y="25.458" width="15.666" height="23.7303" fill="#5E6780"/>
<rect id="Rectangle_3" x="23.2578" y="25.458" width="24.4419" height="20.9235" fill="#5E6780"/>
</g>
<rect id="Rectangle_4" x="25.3711" y="27.5635" width="20.2201" height="16.7127" fill="#99F1FB"/>
<path id="Path_12" d="M25.3711 33.8221L32.9443 27.5625V33.8221H25.3711Z" fill="#66E9F9"/>
<rect id="Rectangle_5" x="7.59375" y="27.5635" width="11.4442" height="19.5194" fill="#99F1FB"/>
<g id="Group_2">
<ellipse id="Oval" cx="16.3248" cy="35.2623" rx="1.04354" ry="1.04063" fill="#2D93BA"/>
<ellipse id="Oval_2" cx="16.3248" cy="40.8756" rx="1.04354" ry="1.04063" fill="#2D93BA"/>
</g>
<path id="Path_13" d="M15.8846 35.2617C15.739 35.2617 15.6211 35.3794 15.6211 35.5245V37.1013C15.6211 37.2465 15.739 37.3642 15.8846 37.3642C16.0303 37.3642 16.1482 37.2465 16.1482 37.1013V35.5245C16.1482 35.3794 16.0303 35.2617 15.8846 35.2617Z" fill="#1C75A1"/>
</g>
<g id="Group_3">
<path id="Path_14" fill-rule="evenodd" clip-rule="evenodd" d="M22.0707 26.4935C21.979 26.5852 21.8303 26.5852 21.7386 26.4935L21.3067 26.0615C21.215 25.9698 21.215 25.8212 21.3067 25.7295C21.3984 25.6378 21.547 25.6378 21.6387 25.7295L22.0707 26.1615C22.1624 26.2532 22.1624 26.4018 22.0707 26.4935Z" fill="white"/>
<path id="Path_15" fill-rule="evenodd" clip-rule="evenodd" d="M27.4027 26.7829L26.9708 27.2149C26.8791 27.3066 26.7304 27.3066 26.6387 27.2149C26.547 27.1232 26.547 26.9745 26.6387 26.8828L27.0707 26.4508C27.1624 26.3591 27.311 26.3591 27.4027 26.4508C27.4945 26.5425 27.4945 26.6912 27.4027 26.7829Z" fill="white"/>
<path id="Path_16" fill-rule="evenodd" clip-rule="evenodd" d="M24.2078 25.9084C24.0782 25.9084 23.973 25.8033 23.973 25.6736L23.973 25.0627C23.973 24.933 24.0782 24.8279 24.2078 24.8279C24.3375 24.8279 24.4427 24.933 24.4426 25.0627L24.4426 25.6736C24.4426 25.8033 24.3375 25.9084 24.2078 25.9084Z" fill="#EFF0F2"/>
</g>
<g id="Group 2">
<g id="Group 5 Copy">
<path id="Path Copy" d="M25.957 47.1927L26.5038 48.6233H27.1508L26.8 46.2832L25.957 47.1927Z" fill="#00A999"/>
<path id="Path Copy 2" d="M27.0761 52.2041H28.0375C28.2289 52.2041 28.3793 52.0487 28.3793 51.8613C28.3793 51.6694 28.2244 51.5186 28.0375 51.5186H27.0761C26.8847 51.5186 26.7344 51.674 26.7344 51.8613C26.7344 52.0487 26.8847 52.2041 27.0761 52.2041Z" fill="#FFBB38"/>
<g id="Group Copy 2">
<path id="Path_17" d="M9.35756 33.0462C9.35756 33.0462 6.03472 34.0914 3.34632 32.648C3.31894 32.6344 3.30981 32.6254 3.28242 32.6118C3.15462 32.553 3.05421 32.657 3.07246 32.7611C3.07703 32.8018 3.08616 32.8244 3.09985 32.8742C3.31437 33.8335 4.1177 36.1683 6.96128 36.7203C10.5671 37.4217 9.80942 35.2769 9.80942 35.2769L9.35756 33.0462Z" fill="#CCF8FD"/>
<path id="Path_18" d="M12.0864 34.1768C10.9473 34.5576 9.49337 34.3318 9.33594 34.3052C9.54894 34.4336 10.7482 35.3416 12.3133 35.4567C12.2855 35.2618 12.0725 34.2875 12.0864 34.1768Z" fill="#00D3BF"/>
<path id="Path_19" d="M29.7096 33.0462C29.7096 33.0462 33.0325 34.0914 35.7208 32.648C35.7482 32.6344 35.7574 32.6254 35.7847 32.6118C35.9125 32.553 36.013 32.657 35.9947 32.7611C35.9901 32.8018 35.981 32.8244 35.9673 32.8742C35.7528 33.8335 34.9495 36.1683 32.1059 36.7203C28.5001 37.4217 29.2577 35.2769 29.2577 35.2769L29.7096 33.0462Z" fill="#CCF8FD"/>
<path id="Path_20" d="M33.4456 34.166C34.5847 34.5469 36.0387 34.321 36.1961 34.2945C35.9831 34.4229 34.7838 35.3308 33.2188 35.446C33.2465 35.2511 33.4595 34.2767 33.4456 34.166Z" fill="#00D3BF"/>
<path id="Path_21" d="M22.4119 47.1767L21.8761 48.6112H21.2422L21.586 46.2646L22.4119 47.1767Z" fill="#00A999"/>
<path id="Path_22" d="M20.8027 52.3158H19.8704C19.6849 52.3158 19.5391 52.1707 19.5391 51.9958C19.5391 51.8166 19.6893 51.6758 19.8704 51.6758H20.8027C20.9883 51.6758 21.1341 51.8208 21.1341 51.9958C21.1341 52.1707 20.9883 52.3158 20.8027 52.3158Z" fill="#FFBB38"/>
<path id="Path_23" d="M22.1005 35.2865C21.7624 35.7267 20.1222 36.7357 19.8344 36.9146C19.807 36.9329 19.775 36.9329 19.7476 36.9146C19.4597 36.7449 17.8058 35.7497 17.4631 35.314C16.7778 34.4426 16.0879 31.9614 16.5813 30.9708C16.9742 30.182 19.7521 29.4619 19.7521 29.4619C19.7521 29.4619 22.5392 30.1544 22.9367 30.9387C23.4392 31.9201 22.7767 34.4105 22.1005 35.2865Z" fill="#00D3BF"/>
</g>
</g>
</g>
<g id="Hugo / Faces / &#226;&#152;&#186;&#239;&#184;&#143;">
<g id="Group_4">
<g id="Group 3">
<path id="Path_24" d="M28.422 18.2328C29.1008 17.3611 30.743 16.5967 30.743 16.5967C30.743 16.5967 32.3852 17.3611 33.0639 18.2328C33.7425 19.1045 34.4207 21.5833 33.9215 22.5691C33.4223 23.5549 31.6659 24.2871 30.7885 24.2871C29.9112 24.2871 28.0637 23.5549 27.5644 22.5691C27.0651 21.5833 27.7433 19.1045 28.422 18.2328Z" fill="#00D3BF"/>
<path id="Path_25" d="M29.122 30.9211C30.0719 30.9211 30.7791 29.21 30.7791 29.21C30.7791 29.21 31.8664 30.9211 32.4362 30.9211C33.006 30.9211 33.8471 30.3784 34.1523 29.7933C34.1538 29.7931 34.0354 30.3415 33.9508 30.4858C33.3609 31.4916 31.6541 32.1778 30.7791 32.1763C29.904 32.1749 28.1212 31.4297 27.6095 30.4753C27.5322 30.3312 27.4908 30.1533 27.4649 29.9546C27.4649 29.9546 28.1721 30.9211 29.122 30.9211Z" fill="#00A999"/>
<path id="Path_26" d="M25.6021 14.54C25.6021 14.54 26.1659 14.2084 26.7901 13.4901C27.3572 12.8373 27.5884 12.1963 27.5884 12.1963C27.5884 12.1963 28.3628 13.1787 27.1722 13.9975C26.9595 14.1435 25.6021 14.54 25.6021 14.54Z" fill="#00A999"/>
</g>
</g>
<g id="Group 43">
<path id="Path_27" d="M33.0475 14.6415C33.0475 14.6415 33.6453 14.2644 33.8144 14.1022C33.9229 13.9957 33.8778 13.8036 33.7432 13.7108C33.613 13.6199 33.4129 13.6317 33.3409 13.7639C33.2334 13.9675 33.0475 14.6415 33.0475 14.6415Z" fill="#00A999"/>
<path id="Path_28" d="M37.3635 14.514C37.3635 14.514 36.7579 14.1653 36.5842 14.0144C36.4704 13.913 36.5013 13.7332 36.6159 13.6419C36.7305 13.5507 36.9236 13.5604 37.0064 13.6871C37.1232 13.8766 37.3635 14.514 37.3635 14.514Z" fill="#00A999"/>
<path id="Path_29" d="M35.4511 18.846L36.8439 18.7034C35.9836 19.6203 36.171 20.6902 36.171 20.6902C36.0183 20.7192 35.517 20.6358 35.2356 20.4486C34.7503 20.128 34.6328 19.7015 34.6019 19.5737C34.7718 19.4686 35.3383 18.9701 35.4511 18.846Z" fill="#262933"/>
<path id="Path_30" d="M34.8092 20.0407C34.8092 20.0407 35.7376 19.8713 35.7242 20.653C35.7242 20.653 35.2778 20.6658 34.8092 20.0407Z" fill="#DF1642"/>
<path id="Path_31" d="M36.1219 20.7435C36.1219 20.7435 36.618 20.5956 36.4619 20.1708C36.4619 20.1708 36.2504 20.8627 35.1247 20.3797C35.1228 20.3841 35.2972 20.6443 36.1219 20.7435Z" fill="#FFBB38"/>
</g>
<g id="Group 2_2">
<g id="Group_5">
<g id="Group_6">
<path id="Path_32" d="M18.3943 24.5089C18.41 25.2051 18.8873 25.7583 19.4601 25.7444C20.0332 25.7307 20.4853 25.155 20.4694 24.459C20.4541 23.7624 19.9767 23.2094 19.4035 23.2234C18.8304 23.2372 18.3788 23.8129 18.3943 24.5089Z" fill="white"/>
<path id="Path_33" d="M19.5035 24.004C19.4767 24.2681 19.2867 24.4711 19.0604 24.4668C18.9702 24.4653 18.8868 24.4308 18.8181 24.3728C18.7522 24.4968 18.7121 24.6434 18.7088 24.8015C18.7001 25.2551 18.9957 25.629 19.3693 25.6357C19.743 25.643 20.0531 25.2805 20.0621 24.8267C20.07 24.4146 19.8274 24.0697 19.5035 24.004Z" fill="#262933"/>
<path id="Path_34" d="M19.8127 25.9189C19.965 25.7455 20.1114 25.5671 20.2678 25.3977C20.2904 25.354 20.3142 25.3079 20.3415 25.2655C19.9798 25.0637 19.3566 25.0068 18.7901 25.1468C18.1458 25.3058 17.8005 25.6638 17.9599 25.9774C18.1098 26.1385 18.2995 26.2601 18.5203 26.3026C18.664 26.3302 18.8061 26.3795 18.9498 26.4152C19.0188 26.4199 19.0894 26.4216 19.1608 26.4208C19.2438 26.3531 19.3498 26.3198 19.4419 26.2649C19.5878 26.1779 19.7013 26.0458 19.8127 25.9189Z" fill="#00D3BF"/>
</g>
<g id="Group_7">
<path id="Path_35" d="M21.5116 24.4633C21.5266 25.1581 21.9981 25.7098 22.5648 25.6954C23.1318 25.6811 23.5795 25.1062 23.5646 24.4116C23.5499 23.7165 23.0783 23.165 22.5113 23.1794C21.9443 23.1938 21.497 23.7688 21.5116 24.4633Z" fill="white"/>
<path id="Path_36" d="M23.0506 25.3C23.0239 25.5637 22.8356 25.7665 22.6118 25.7625C22.5225 25.761 22.44 25.7266 22.3722 25.6688C22.3068 25.7926 22.267 25.939 22.2636 26.0968C22.2546 26.5495 22.5467 26.9223 22.9163 26.9286C23.2859 26.9356 23.593 26.5735 23.6024 26.1207C23.6106 25.7094 23.371 25.3655 23.0506 25.3Z" fill="#262933"/>
<path id="Path_37" d="M21.9704 28.5027C22.1947 28.5614 22.4261 28.5727 22.6546 28.606C22.9049 28.6422 23.1355 28.6348 23.3798 28.5785C23.4408 28.5074 23.5021 28.4368 23.5654 28.3676C23.5877 28.3239 23.6114 28.2779 23.6383 28.2355C23.2807 28.0346 22.6643 27.9784 22.1038 28.1185C21.8883 28.1724 21.7079 28.2493 21.568 28.339C21.6861 28.4222 21.8523 28.4719 21.9704 28.5027Z" fill="#00D3BF"/>
</g>
</g>
</g>
<path id="Path_38" d="M34.7492 28.4277C34.7492 28.4277 34.7342 28.8117 34.5001 29.2656C34.2968 29.6602 34.1748 29.7875 34.1748 29.7875C34.1748 29.7875 37.4075 30.1352 40.5469 28.5329C40.5469 28.5329 38.3648 29.0768 36.5476 28.8418C35.7232 28.7351 34.7492 28.4277 34.7492 28.4277Z" fill="#FFBB38"/>
</g>
</g>
</g>
</g>
</g>
</g>
</g>
</g>
</g>
</g>
</svg>
