<svg width="44" height="41" viewBox="0 0 44 41" fill="none" xmlns="http://www.w3.org/2000/svg">
<rect width="44" height="41" fill="#272727"/>
<g id="Onboarding">
<path d="M-11370 -9898.5C-11370 -9899.6 -11369.1 -9900.5 -11368 -9900.5H19138C19139.1 -9900.5 19140 -9899.6 19140 -9898.5V5811.5C19140 5812.6 19139.1 5813.5 19138 5813.5H-11368C-11369.1 5813.5 -11370 5812.6 -11370 5811.5V-9898.5Z" fill="#444444"/>
<path d="M-11368 -9900.5V-9899.5H19138V-9900.5V-9901.5H-11368V-9900.5ZM19140 -9898.5H19139V5811.5H19140H19141V-9898.5H19140ZM19138 5813.5V5812.5H-11368V5813.5V5814.5H19138V5813.5ZM-11370 5811.5H-11369V-9898.5H-11370H-11371V5811.5H-11370ZM-11368 5813.5V5812.5C-11368.6 5812.5 -11369 5812.05 -11369 5811.5H-11370H-11371C-11371 5813.16 -11369.7 5814.5 -11368 5814.5V5813.5ZM19140 5811.5H19139C19139 5812.05 19138.6 5812.5 19138 5812.5V5813.5V5814.5C19139.7 5814.5 19141 5813.16 19141 5811.5H19140ZM19138 -9900.5V-9899.5C19138.6 -9899.5 19139 -9899.05 19139 -9898.5H19140H19141C19141 -9900.16 19139.7 -9901.5 19138 -9901.5V-9900.5ZM-11368 -9900.5V-9901.5C-11369.7 -9901.5 -11371 -9900.16 -11371 -9898.5H-11370H-11369C-11369 -9899.05 -11368.6 -9899.5 -11368 -9899.5V-9900.5Z" fill="white" fill-opacity="0.1"/>
<g id="Screens">
<g id="Body">
<path d="M-448 -262.5C-448 -292.67 -448 -307.755 -438.627 -317.127C-429.255 -326.5 -414.17 -326.5 -384 -326.5H960C990.17 -326.5 1005.25 -326.5 1014.63 -317.127C1024 -307.755 1024 -292.67 1024 -262.5V409.5C1024 439.67 1024 454.755 1014.63 464.127C1005.25 473.5 990.17 473.5 960 473.5H-384C-414.17 473.5 -429.255 473.5 -438.627 464.127C-448 454.755 -448 439.67 -448 409.5V-262.5Z" fill="#0F1014" fill-opacity="0.72"/>
<g id="Form">
<g id="Section Header">
<g id="skills">
<g id="Card/skill">
<path d="M-12 10C-12 3.93883 -12 0.908249 -10.9304 -1.45248C-9.72885 -4.10428 -7.60428 -6.22885 -4.95248 -7.43037C-2.59175 -8.5 0.438832 -8.5 6.5 -8.5H176.5C182.561 -8.5 185.592 -8.5 187.952 -7.43037C190.604 -6.22885 192.729 -4.10428 193.93 -1.45248C195 0.908249 195 3.93883 195 10C195 16.0612 195 19.0918 193.93 21.4525C192.729 24.1043 190.604 26.2289 187.952 27.4304C185.592 28.5 182.561 28.5 176.5 28.5H6.5C0.438832 28.5 -2.59175 28.5 -4.95248 27.4304C-7.60428 26.2289 -9.72885 24.1043 -10.9304 21.4525C-12 19.0918 -12 16.0612 -12 10Z" fill="#454C5E" fill-opacity="0.16"/>
<g id="Illustrations">
<g id="Icons/Skill Icon/Coaching &#38; Feedback">
<g id="language">
<g id="Group">
<path id="Path" fill-rule="evenodd" clip-rule="evenodd" d="M11.197 0.728516H3.32474C1.78408 0.728516 0.535156 1.97759 0.535156 3.51834V8.20758C0.535156 9.74838 1.78408 10.9974 3.32474 10.9974H3.33455V12.4089C3.33455 13.1747 4.18794 13.6315 4.82509 13.2067L8.13863 10.9974H11.197C12.7376 10.9974 13.9866 9.74834 13.9866 8.20758V3.51834C13.9866 1.97759 12.7376 0.728516 11.197 0.728516Z" fill="#00A999"/>
<path id="Path_2" fill-rule="evenodd" clip-rule="evenodd" d="M4.27346 10.9972H3.32462C1.78412 10.9972 0.535156 9.7481 0.535156 8.2075V3.51822C0.535156 1.97759 1.78412 0.728516 3.32462 0.728516H4.27346C2.73296 0.728516 1.484 1.97759 1.484 3.51822V8.2075C1.484 9.74814 2.73296 10.9972 4.27346 10.9972Z" fill="#007F73"/>
</g>
<g id="Group_2">
<path id="Path_3" fill-rule="evenodd" clip-rule="evenodd" d="M20.2739 19.6494H28.1462C29.6869 19.6494 30.9358 20.8985 30.9358 22.4392V27.1285C30.9358 28.6693 29.6868 29.9183 28.1462 29.9183H28.1364V31.3298C28.1364 32.0956 27.283 32.5524 26.6458 32.1276L23.3323 29.9184H20.274C18.7333 29.9184 17.4844 28.6693 17.4844 27.1285V22.4392C17.4843 20.8984 18.7333 19.6494 20.2739 19.6494Z" fill="#FFBB38"/>
<path id="Path_4" fill-rule="evenodd" clip-rule="evenodd" d="M21.2227 29.9181H20.2738C18.7333 29.9181 17.4844 28.669 17.4844 27.1284V22.4391C17.4844 20.8985 18.7333 19.6494 20.2738 19.6494H21.2227C19.6822 19.6494 18.4332 20.8985 18.4332 22.4391V27.1284C18.4333 28.669 19.6822 29.9181 21.2227 29.9181Z" fill="#B38327"/>
</g>
<path id="Path_5" fill-rule="evenodd" clip-rule="evenodd" d="M42.2637 2.92724L41.8435 3.00427C41.0468 1.83177 39.8765 0.977777 38.5018 0.576748C37.9413 0.41325 37.3545 0.735115 37.191 1.29562C37.0275 1.85612 37.3494 2.44303 37.9098 2.60652C38.4825 2.7736 39.0007 3.06105 39.4364 3.44558L39.3177 3.46734C38.7742 3.56695 38.5424 4.21758 38.9004 4.63844L40.8409 6.91958C41.1989 7.3404 41.8781 7.2159 42.0636 6.69548L43.0691 3.87428C43.2546 3.35373 42.8071 2.82763 42.2637 2.92724Z" fill="#5E6780"/>
<path id="Path_6" fill-rule="evenodd" clip-rule="evenodd" d="M1.92229 38.504L2.34242 38.427C3.13919 39.5995 4.30945 40.4535 5.68417 40.8545C6.24462 41.018 6.83147 40.6962 6.99496 40.1357C7.15844 39.5752 6.8366 38.9882 6.27615 38.8247C5.7035 38.6577 5.18529 38.3702 4.74957 37.9857L4.8683 37.9639C5.41176 37.8643 5.64356 37.2137 5.28555 36.7928L3.34504 34.5117C2.98708 34.0909 2.30785 34.2154 2.12236 34.7358L1.11686 37.557C0.931367 38.0775 1.37884 38.6036 1.92229 38.504Z" fill="#5E6780"/>
<g id="Group_3">
<g id="Group_4">
<ellipse id="Oval" cx="28.1247" cy="34.3075" rx="2.4059" ry="2.40611" fill="#524798"/>
<ellipse id="Oval_2" cx="35.4411" cy="34.3075" rx="2.4059" ry="2.40611" fill="#524798"/>
<ellipse id="Oval_3" cx="42.7575" cy="34.3075" rx="2.4059" ry="2.40611" fill="#524798"/>
</g>
<g id="Group_5">
<ellipse id="Oval_4" cx="12.1207" cy="15.1405" rx="2.4059" ry="2.40611" fill="#524798"/>
<ellipse id="Oval_5" cx="19.4372" cy="15.1405" rx="2.4059" ry="2.40611" fill="#524798"/>
<ellipse id="Oval_6" cx="26.7536" cy="15.1405" rx="2.4059" ry="2.40611" fill="#524798"/>
</g>
</g>
</g>
</g>
</g>
</g>
</g>
</g>
</g>
</g>
</g>
</g>
</svg>
