<svg width="37" height="39" viewBox="0 0 37 39" fill="none" xmlns="http://www.w3.org/2000/svg">
<rect width="37" height="39" fill="#272727"/>
<g id="Onboarding">
<path d="M-11370 -9849.5C-11370 -9850.6 -11369.1 -9851.5 -11368 -9851.5H19138C19139.1 -9851.5 19140 -9850.6 19140 -9849.5V5860.5C19140 5861.6 19139.1 5862.5 19138 5862.5H-11368C-11369.1 5862.5 -11370 5861.6 -11370 5860.5V-9849.5Z" fill="#444444"/>
<path d="M-11368 -9851.5V-9850.5H19138V-9851.5V-9852.5H-11368V-9851.5ZM19140 -9849.5H19139V5860.5H19140H19141V-9849.5H19140ZM19138 5862.5V5861.5H-11368V5862.5V5863.5H19138V5862.5ZM-11370 5860.5H-11369V-9849.5H-11370H-11371V5860.5H-11370ZM-11368 5862.5V5861.5C-11368.6 5861.5 -11369 5861.05 -11369 5860.5H-11370H-11371C-11371 5862.16 -11369.7 5863.5 -11368 5863.5V5862.5ZM19140 5860.5H19139C19139 5861.05 19138.6 5861.5 19138 5861.5V5862.5V5863.5C19139.7 5863.5 19141 5862.16 19141 5860.5H19140ZM19138 -9851.5V-9850.5C19138.6 -9850.5 19139 -9850.05 19139 -9849.5H19140H19141C19141 -9851.16 19139.7 -9852.5 19138 -9852.5V-9851.5ZM-11368 -9851.5V-9852.5C-11369.7 -9852.5 -11371 -9851.16 -11371 -9849.5H-11370H-11369C-11369 -9850.05 -11368.6 -9850.5 -11368 -9850.5V-9851.5Z" fill="white" fill-opacity="0.1"/>
<g id="Screens">
<g id="Body">
<path d="M-448 -213.5C-448 -243.67 -448 -258.755 -438.627 -268.127C-429.255 -277.5 -414.17 -277.5 -384 -277.5H960C990.17 -277.5 1005.25 -277.5 1014.63 -268.127C1024 -258.755 1024 -243.67 1024 -213.5V458.5C1024 488.67 1024 503.755 1014.63 513.127C1005.25 522.5 990.17 522.5 960 522.5H-384C-414.17 522.5 -429.255 522.5 -438.627 513.127C-448 503.755 -448 488.67 -448 458.5V-213.5Z" fill="#0F1014" fill-opacity="0.72"/>
<g id="Form">
<g id="Section Header">
<g id="skills">
<g id="Card/skill">
<path d="M-12 10C-12 3.93883 -12 0.908249 -10.9304 -1.45248C-9.72885 -4.10428 -7.60428 -6.22885 -4.95248 -7.43037C-2.59175 -8.5 0.438832 -8.5 6.5 -8.5H120.47C126.531 -8.5 129.562 -8.5 131.923 -7.43037C134.575 -6.22885 136.699 -4.10428 137.901 -1.45248C138.97 0.908249 138.97 3.93883 138.97 10C138.97 16.0612 138.97 19.0918 137.901 21.4525C136.699 24.1043 134.575 26.2289 131.923 27.4304C129.562 28.5 126.531 28.5 120.47 28.5H6.5C0.438833 28.5 -2.59175 28.5 -4.95248 27.4304C-7.60428 26.2289 -9.72885 24.1043 -10.9304 21.4525C-12 19.0918 -12 16.0612 -12 10Z" fill="#454C5E" fill-opacity="0.16"/>
<g id="Illustrations">
<g id="Icons/Skill Icon/DevOps Tools">
<g id="stats">
<path id="Path" fill-rule="evenodd" clip-rule="evenodd" d="M20 9.99322C20 13.1418 18.543 15.9503 16.2658 17.7819C15.8226 18.1385 13.751 19.2805 13.1635 19.4762C12.5674 19.6746 11.9463 19.8185 11.3061 19.9019C10.8787 19.9578 8.44845 19.8957 7.7144 19.7242C7.12061 19.5854 6.54726 19.3938 5.9995 19.1547C5.36375 18.8772 2.93727 17.114 2.40791 16.4975C0.906907 14.7495 0 12.4771 0 9.99322C0 4.47409 4.47712 0 10 0C15.5229 0 20 4.47409 20 9.99322Z" fill="#00CEE6"/>
<path id="Path_2" fill-rule="evenodd" clip-rule="evenodd" d="M6.46484 35.3886V30.8609C6.46484 30.5214 6.73911 30.2461 7.07738 30.2461H9.44605C9.78432 30.2461 10.0586 30.5214 10.0586 30.8609V38.0586C8.66711 37.4483 7.44047 36.5297 6.46484 35.3886Z" fill="#DF1642"/>
<path id="Path_3" fill-rule="evenodd" clip-rule="evenodd" d="M9.59375 36.5271V30.8609C9.59375 30.5214 9.86484 30.2461 10.1992 30.2461H11.4102C11.7445 30.2461 12.0156 30.5214 12.0156 30.8609V38.0586C11.1339 37.6674 10.3191 37.1494 9.59375 36.5271Z" fill="#E95C7B"/>
<path id="Path_4" fill-rule="evenodd" clip-rule="evenodd" d="M24.2461 22.3056V33.4835C23.8184 33.5392 23.3823 33.5684 22.9393 33.5684C22.1524 33.5684 21.3869 33.4773 20.6523 33.3057V22.3056C20.6523 21.9674 20.9266 21.6934 21.265 21.6934H23.6336C23.9718 21.6934 24.2461 21.9674 24.2461 22.3056Z" fill="#FFBB38"/>
<path id="Path_5" fill-rule="evenodd" clip-rule="evenodd" d="M26.2031 22.3056V33.4835C25.7804 33.5392 25.3493 33.5684 24.9114 33.5684C24.5292 33.5684 24.1522 33.5457 23.7812 33.503V22.3056C23.7812 21.9674 24.0523 21.6934 24.3867 21.6934H25.5977C25.932 21.6934 26.2031 21.9674 26.2031 22.3056Z" fill="#FFCF74"/>
<path id="Path_6" fill-rule="evenodd" clip-rule="evenodd" d="M34.5746 7.98657C34.316 8.13217 34.1538 8.40326 34.1538 8.69976V18.2806C33.2378 19.0168 32.1894 19.5953 31.0495 19.9746V8.18923C29.6107 7.58329 28.5915 6.1633 28.5783 4.51806C28.5653 2.90118 29.5091 1.50349 30.878 0.854369C31.0145 0.789676 31.172 0.88695 31.172 1.03769V4.95408C31.172 5.40459 31.5377 5.76969 31.9889 5.76969H33.2144C33.6654 5.76969 34.0312 5.40459 34.0312 4.95408V1.03785C34.0312 0.887262 34.1884 0.789676 34.3247 0.854213C35.6846 1.49866 36.625 2.88217 36.625 4.48501C36.625 5.98777 35.7985 7.2977 34.5746 7.98657Z" fill="#7E8599"/>
<path id="Path_7" fill-rule="evenodd" clip-rule="evenodd" d="M32.3281 20.086C31.9114 20.2956 31.4782 20.477 31.0308 20.627V9.35185C31.0308 9.05591 30.8703 8.78538 30.6144 8.63951C29.4099 7.95305 28.59 6.65555 28.5783 5.17572C28.5674 3.81604 29.2286 2.61141 30.2476 1.87695C29.7718 2.54378 29.4934 3.36302 29.5006 4.24817C29.5133 5.85158 30.475 7.24103 31.8465 7.87108C32.138 8.00494 32.3281 8.29387 32.3281 8.61614V20.086Z" fill="#5E6780"/>
</g>
</g>
</g>
</g>
</g>
</g>
</g>
</g>
</g>
</g>
</svg>
