<svg width="44" height="48" viewBox="0 0 44 48" fill="none" xmlns="http://www.w3.org/2000/svg">
<rect width="44" height="48" fill="#272727"/>
<g id="Onboarding">
<path d="M-11370 -10082.5C-11370 -10083.6 -11369.1 -10084.5 -11368 -10084.5H19138C19139.1 -10084.5 19140 -10083.6 19140 -10082.5V5627.5C19140 5628.6 19139.1 5629.5 19138 5629.5H-11368C-11369.1 5629.5 -11370 5628.6 -11370 5627.5V-10082.5Z" fill="#444444"/>
<path d="M-11368 -10084.5V-10083.5H19138V-10084.5V-10085.5H-11368V-10084.5ZM19140 -10082.5H19139V5627.5H19140H19141V-10082.5H19140ZM19138 5629.5V5628.5H-11368V5629.5V5630.5H19138V5629.5ZM-11370 5627.5H-11369V-10082.5H-11370H-11371V5627.5H-11370ZM-11368 5629.5V5628.5C-11368.6 5628.5 -11369 5628.05 -11369 5627.5H-11370H-11371C-11371 5629.16 -11369.7 5630.5 -11368 5630.5V5629.5ZM19140 5627.5H19139C19139 5628.05 19138.6 5628.5 19138 5628.5V5629.5V5630.5C19139.7 5630.5 19141 5629.16 19141 5627.5H19140ZM19138 -10084.5V-10083.5C19138.6 -10083.5 19139 -10083.1 19139 -10082.5H19140H19141C19141 -10084.2 19139.7 -10085.5 19138 -10085.5V-10084.5ZM-11368 -10084.5V-10085.5C-11369.7 -10085.5 -11371 -10084.2 -11371 -10082.5H-11370H-11369C-11369 -10083.1 -11368.6 -10083.5 -11368 -10083.5V-10084.5Z" fill="white" fill-opacity="0.1"/>
<g id="Screens">
<g id="Body">
<path d="M-448 -446.5C-448 -476.67 -448 -491.755 -438.627 -501.127C-429.255 -510.5 -414.17 -510.5 -384 -510.5H960C990.17 -510.5 1005.25 -510.5 1014.63 -501.127C1024 -491.755 1024 -476.67 1024 -446.5V225.5C1024 255.67 1024 270.755 1014.63 280.127C1005.25 289.5 990.17 289.5 960 289.5H-384C-414.17 289.5 -429.255 289.5 -438.627 280.127C-448 270.755 -448 255.67 -448 225.5V-446.5Z" fill="#0F1014" fill-opacity="0.72"/>
<g id="Form">
<g id="Section Header">
<g id="skills">
<g id="Card/skill">
<path d="M-12 10C-12 3.93883 -12 0.908249 -10.9304 -1.45248C-9.72885 -4.10428 -7.60428 -6.22885 -4.95248 -7.43037C-2.59175 -8.5 0.438832 -8.5 6.5 -8.5H271.5C277.561 -8.5 280.592 -8.5 282.952 -7.43037C285.604 -6.22885 287.729 -4.10428 288.93 -1.45248C290 0.908249 290 3.93883 290 10C290 16.0612 290 19.0918 288.93 21.4525C287.729 24.1043 285.604 26.2289 282.952 27.4304C280.592 28.5 277.561 28.5 271.5 28.5H6.49999C0.43883 28.5 -2.59175 28.5 -4.95248 27.4304C-7.60428 26.2289 -9.72885 24.1043 -10.9304 21.4525C-12 19.0918 -12 16.0612 -12 10Z" fill="#454C5E" fill-opacity="0.16"/>
<g id="Illustrations">
<g id="Icons/Skill Icon/Learning Program Design &#38; Delivery">
<g id="book">
<g id="Group">
<ellipse id="Oval" cx="17.1941" cy="8.05164" rx="6.1902" ry="6.19519" fill="#EBEBFC"/>
<ellipse id="Oval_2" cx="35.7644" cy="8.05164" rx="6.1902" ry="6.19519" fill="#CBCBF7"/>
<rect id="Rectangle" x="6.35938" y="6.50293" width="4.64269" height="3.09752" fill="#4B5266"/>
<rect id="Rectangle_2" x="23.3828" y="6.50293" width="6.1902" height="3.09752" fill="#3E5959"/>
<rect id="Rectangle_3" x="41.9531" y="6.50293" width="4.64269" height="3.09752" fill="#383E4D"/>
<path id="Path" d="M10.2014 17.8431L3.24603 15.2979V26.9564C3.23086 26.9635 3.23012 26.9657 3.24603 26.9623L10.2014 29.4833L11.0708 28.7582V18.9307L10.2014 17.8431Z" fill="#DF1642"/>
<path id="Path_2" d="M29.1865 17.844L28.0273 19.0698V27.8829L29.0904 29.3545L29.0927 29.3537L29.1865 29.4843L36.1419 26.9632V15.2988L29.1865 17.844Z" fill="#9C0F2E"/>
<path id="Path_3" d="M25.3136 44.9375V47.2965H21.8359V44.9375L22.7865 43.7773H24.2819L25.3136 44.9375Z" fill="#F2A2B3"/>
<path id="Path_4" d="M27.1875 43.7773L28.2193 44.9375V47.2965H26.4805V43.7773H27.1875Z" fill="#E95C7B"/>
<path id="Path_5" d="M25.3136 22.0938V24.4141L24.2587 25.5743H22.6938L21.8359 24.4141V22.0938H25.3136Z" fill="#F2A2B3"/>
<path id="Path_6" d="M28.2193 22.0938V24.4141L27.1644 25.5743H26.4805V22.0938H28.2193Z" fill="#E95C7B"/>
<path id="Path_7" d="M21.8359 28.2891V35.25H25.3136V28.2891H21.8359Z" fill="#E95C7B"/>
<path id="Shape" fill-rule="evenodd" clip-rule="evenodd" d="M9.45703 3.208C9.45703 4.8072 10.7572 6.10839 12.3551 6.10839C13.9529 6.10839 15.2531 4.8072 15.2531 3.208C15.2531 1.6088 13.953 0.307617 12.3551 0.307617C10.7572 0.307617 9.45703 1.6088 9.45703 3.208ZM10.6162 3.20806C10.6162 2.24839 11.3962 1.46781 12.3551 1.46781C13.3139 1.46781 14.0939 2.24839 14.0939 3.20806C14.0939 4.16773 13.314 4.94831 12.3551 4.94831C11.3962 4.94831 10.6162 4.16773 10.6162 3.20806Z" fill="#4B5266"/>
<path id="Shape_2" fill-rule="evenodd" clip-rule="evenodd" d="M28.0273 3.208C28.0273 4.8072 29.3275 6.10839 30.9254 6.10839C32.5233 6.10839 33.8234 4.8072 33.8234 3.208C33.8234 1.6088 32.5233 0.307617 30.9254 0.307617C29.3275 0.307617 28.0273 1.6088 28.0273 3.208ZM29.1865 3.20806C29.1865 2.24839 29.9666 1.46781 30.9254 1.46781C31.8842 1.46781 32.6642 2.24839 32.6642 3.20806C32.6642 4.16773 31.8843 4.94831 30.9254 4.94831C29.9665 4.94831 29.1865 4.16773 29.1865 3.20806Z" fill="#383E4D"/>
<rect id="Rectangle_4" x="26.4805" y="28.2891" width="4.64269" height="18.5856" fill="#DF1642"/>
<rect id="Rectangle_5" x="26.4805" y="6.50293" width="3.09503" height="3.09752" fill="#293939"/>
</g>
</g>
</g>
</g>
</g>
</g>
</g>
</g>
</g>
</g>
</g>
</svg>
