<svg width="41" height="41" viewBox="0 0 41 41" fill="none" xmlns="http://www.w3.org/2000/svg">
<rect width="41" height="41" fill="#272727"/>
<g id="Onboarding">
<path d="M-11370 -9947.5C-11370 -9948.6 -11369.1 -9949.5 -11368 -9949.5H19138C19139.1 -9949.5 19140 -9948.6 19140 -9947.5V5762.5C19140 5763.6 19139.1 5764.5 19138 5764.5H-11368C-11369.1 5764.5 -11370 5763.6 -11370 5762.5V-9947.5Z" fill="#444444"/>
<path d="M-11368 -9949.5V-9948.5H19138V-9949.5V-9950.5H-11368V-9949.5ZM19140 -9947.5H19139V5762.5H19140H19141V-9947.5H19140ZM19138 5764.5V5763.5H-11368V5764.5V5765.5H19138V5764.5ZM-11370 5762.5H-11369V-9947.5H-11370H-11371V5762.5H-11370ZM-11368 5764.5V5763.5C-11368.6 5763.5 -11369 5763.05 -11369 5762.5H-11370H-11371C-11371 5764.16 -11369.7 5765.5 -11368 5765.5V5764.5ZM19140 5762.5H19139C19139 5763.05 19138.6 5763.5 19138 5763.5V5764.5V5765.5C19139.7 5765.5 19141 5764.16 19141 5762.5H19140ZM19138 -9949.5V-9948.5C19138.6 -9948.5 19139 -9948.05 19139 -9947.5H19140H19141C19141 -9949.16 19139.7 -9950.5 19138 -9950.5V-9949.5ZM-11368 -9949.5V-9950.5C-11369.7 -9950.5 -11371 -9949.16 -11371 -9947.5H-11370H-11369C-11369 -9948.05 -11368.6 -9948.5 -11368 -9948.5V-9949.5Z" fill="white" fill-opacity="0.1"/>
<g id="Screens">
<g id="Body">
<path d="M-448 -311.5C-448 -341.67 -448 -356.755 -438.627 -366.127C-429.255 -375.5 -414.17 -375.5 -384 -375.5H960C990.17 -375.5 1005.25 -375.5 1014.63 -366.127C1024 -356.755 1024 -341.67 1024 -311.5V360.5C1024 390.67 1024 405.755 1014.63 415.127C1005.25 424.5 990.17 424.5 960 424.5H-384C-414.17 424.5 -429.255 424.5 -438.627 415.127C-448 405.755 -448 390.67 -448 360.5V-311.5Z" fill="#0F1014" fill-opacity="0.72"/>
<g id="Form">
<g id="Section Header">
<g id="skills">
<g id="Card/skill">
<path d="M-12 10C-12 3.93883 -12 0.908249 -10.9304 -1.45248C-9.72885 -4.10428 -7.60428 -6.22885 -4.95248 -7.43037C-2.59175 -8.5 0.438832 -8.5 6.5 -8.5H119.5C125.561 -8.5 128.592 -8.5 130.952 -7.43037C133.604 -6.22885 135.729 -4.10428 136.93 -1.45248C138 0.908249 138 3.93883 138 10C138 16.0612 138 19.0918 136.93 21.4525C135.729 24.1043 133.604 26.2289 130.952 27.4304C128.592 28.5 125.561 28.5 119.5 28.5H6.5C0.438832 28.5 -2.59175 28.5 -4.95248 27.4304C-7.60428 26.2289 -9.72885 24.1043 -10.9304 21.4525C-12 19.0918 -12 16.0612 -12 10Z" fill="#454C5E" fill-opacity="0.16"/>
<g id="Illustrations">
<g id="Icons/Skill Icon/Programming">
<g id="mobile">
<g id="Group">
<g id="Group_2">
<path id="Path" d="M14.6107 19.9998H5.59646C4.86572 19.9998 4.27344 19.3991 4.27344 18.6582V1.34167C4.27344 0.600625 4.86587 0 5.59646 0H14.6107C15.3415 0 15.9338 0.600782 15.9338 1.34167V18.6582C15.9339 19.3991 15.3415 19.9998 14.6107 19.9998Z" fill="#E95C7B"/>
<path id="Path_2" d="M16.0266 21.0206H6.29568C6.11307 21.0206 5.96484 20.8704 5.96484 20.6851V4.40288C5.96484 4.2177 6.11291 4.06738 6.29568 4.06738H16.0266C16.2094 4.06738 16.3574 4.21754 16.3574 4.40288V20.6853C16.3574 20.8704 16.2092 21.0206 16.0266 21.0206Z" fill="#E6E7E8"/>
<rect id="Rectangle" x="8.6875" y="4.06738" width="22.3017" height="45.2646" fill="white"/>
<path id="Path_3" d="M16.3006 15.6633H7.55662C7.35496 15.6633 7.19141 15.4975 7.19141 15.293V12.1252C7.19141 11.9207 7.35496 11.7549 7.55662 11.7549H16.3006C16.5023 11.7549 16.6658 11.9207 16.6658 12.1252V15.293C16.6658 15.4975 16.5023 15.6633 16.3006 15.6633Z" fill="#D1D3D4"/>
<rect id="Rectangle_2" x="8.66016" y="11.7822" width="22.3017" height="10.4359" fill="#E6E7E8"/>
<path id="Path_4" d="M16.3006 28.2542H7.55662C7.35496 28.2542 7.19141 28.0883 7.19141 27.8838V24.7161C7.19141 24.5114 7.35496 24.3457 7.55662 24.3457H16.3006C16.5023 24.3457 16.6658 24.5116 16.6658 24.7161V27.8838C16.6658 28.0883 16.5023 28.2542 16.3006 28.2542Z" fill="#D1D3D4"/>
<rect id="Rectangle_3" x="8.66016" y="24.373" width="22.3017" height="10.4359" fill="#E6E7E8"/>
<path id="Path_5" d="M16.3006 40.845H7.55662C7.35496 40.845 7.19141 40.6791 7.19141 40.4746V37.3069C7.19141 37.1024 7.35496 36.9365 7.55662 36.9365H16.3006C16.5023 36.9365 16.6658 37.1024 16.6658 37.3069V40.4746C16.6658 40.6791 16.5023 40.845 16.3006 40.845Z" fill="#D1D3D4"/>
<rect id="Rectangle_4" x="8.66016" y="36.9639" width="22.3017" height="10.4359" fill="#E6E7E8"/>
<g id="Group_3">
<path id="Path_6" d="M5.96484 4.40288V6.31753H16.3573V4.40288C16.3573 4.21754 16.2092 4.06738 16.0264 4.06738H6.29568C6.11291 4.06738 5.96484 4.21754 5.96484 4.40288Z" fill="#BCBEC0"/>
<rect id="Rectangle_5" x="8.6875" y="4.06738" width="22.3017" height="6.00783" fill="#D1D3D4"/>
<path id="Path_7" d="M9.16587 6.04461C9.16587 6.38419 8.89436 6.65952 8.5595 6.65952C8.22464 6.65952 7.95312 6.38419 7.95312 6.04461C7.95312 5.70503 8.22464 5.42969 8.5595 5.42969C8.89436 5.42969 9.16587 5.70503 9.16587 6.04461Z" fill="#D1D3D4"/>
<path id="Path_8" d="M9.01911 5.42969C8.89675 5.42969 8.78291 5.4666 8.6875 5.5299V6.55947C8.78291 6.62277 8.89675 6.65968 9.01911 6.65968C9.35397 6.65968 9.62548 6.38434 9.62548 6.04476C9.62548 5.70503 9.35397 5.42969 9.01911 5.42969Z" fill="white"/>
<path id="Shape" fill-rule="evenodd" clip-rule="evenodd" d="M28.2931 5.33891C28.2931 5.26022 28.356 5.19629 28.4338 5.19629H29.4895C29.5672 5.19629 29.6301 5.26006 29.6301 5.33891C29.6301 5.4176 29.5672 5.48152 29.4895 5.48152H28.4338C28.356 5.48152 28.2931 5.4176 28.2931 5.33891ZM29.4893 5.75576H28.4336C28.356 5.75576 28.293 5.81953 28.293 5.89838C28.293 5.97707 28.3559 6.041 28.4336 6.041H29.4893C29.567 6.041 29.6299 5.97723 29.6299 5.89838C29.6299 5.81969 29.567 5.75576 29.4893 5.75576ZM28.4336 6.31539H29.4893C29.567 6.31539 29.6299 6.37916 29.6299 6.45801C29.6299 6.53686 29.567 6.60063 29.4893 6.60063H28.4336C28.3559 6.60063 28.293 6.5367 28.293 6.45801C28.293 6.37916 28.356 6.31539 28.4336 6.31539Z" fill="#D1D3D4"/>
<g id="Group_4">
<path id="Path_9" d="M28.293 6.83305C28.293 6.91174 28.3559 6.97566 28.4336 6.97566H29.3025V6.69043H28.4336C28.3559 6.69043 28.293 6.75436 28.293 6.83305Z" fill="white"/>
<path id="Path_10" d="M29.3025 8.18457H28.4336C28.356 8.18457 28.293 8.24834 28.293 8.32719C28.293 8.40588 28.3559 8.4698 28.4336 8.4698H29.3025V8.18457Z" fill="white"/>
<path id="Path_11" d="M28.293 5.33973C28.293 5.41842 28.3559 5.48234 28.4336 5.48234H29.3025V5.19727H28.4336C28.3559 5.19711 28.293 5.26104 28.293 5.33973Z" fill="white"/>
</g>
</g>
</g>
<g id="Group_5">
<path id="Path_12" fill-rule="evenodd" clip-rule="evenodd" d="M29.269 25.7989H18.8718C18.5543 25.7989 18.2969 25.5379 18.2969 25.2159V16.5186C18.2969 16.1966 18.5543 15.9355 18.8718 15.9355H29.269C29.5866 15.9355 29.844 16.1966 29.844 16.5186V25.2159C29.844 25.5379 29.5866 25.7989 29.269 25.7989Z" fill="#005862"/>
<path id="Path_13" fill-rule="evenodd" clip-rule="evenodd" d="M29.269 24.6104H18.8718C18.5543 24.6104 18.2969 24.3494 18.2969 24.0274V15.3301C18.2969 15.0081 18.5543 14.7471 18.8718 14.7471H29.269C29.5866 14.7471 29.844 15.0081 29.844 15.3301V24.0274C29.844 24.3494 29.5866 24.6104 29.269 24.6104Z" fill="#008393"/>
<g id="Group_6">
<g id="Group_7">
<g id="Group_8">
<path id="Path_14" d="M25.009 28.2579C24.9101 28.2579 24.8113 28.2197 24.736 28.1432L23.0896 26.4736C23.0171 26.4003 22.9766 26.3005 22.9766 26.1969C22.9766 26.0932 23.0173 25.9935 23.0896 25.9201L24.736 24.2505C24.8869 24.0975 25.1312 24.0975 25.2822 24.2505C25.4329 24.4033 25.4329 24.6513 25.2822 24.8041L23.9087 26.197L25.282 27.5897C25.4329 27.7426 25.4329 27.9906 25.2822 28.1434C25.2066 28.2197 25.1078 28.2579 25.009 28.2579Z" fill="white"/>
<path id="Path_15" d="M24.6512 26.197L26.0247 24.8041C26.1754 24.6513 26.1754 24.4033 26.0247 24.2505C25.8833 24.1071 25.6599 24.0981 25.5081 24.2235C25.5184 24.2318 25.5281 24.2409 25.5376 24.2505C25.6883 24.4033 25.6883 24.6513 25.5376 24.8041L24.1641 26.197L25.5374 27.5897C25.6883 27.7426 25.6883 27.9906 25.5376 28.1434C25.5281 28.153 25.5182 28.1619 25.5081 28.1704C25.5788 28.2288 25.6652 28.258 25.7516 28.258C25.8504 28.258 25.9493 28.2199 26.0247 28.1434C26.1754 27.9906 26.1754 27.7426 26.0245 27.5897L24.6512 26.197Z" fill="#E6E7E8"/>
<path id="Path_16" d="M38.3783 28.2581C38.2795 28.2581 38.1806 28.2199 38.1052 28.1434C37.9545 27.9906 37.9545 27.7426 38.1054 27.5897L39.4787 26.197L38.1052 24.8041C37.9545 24.6513 37.9545 24.4033 38.1052 24.2505C38.2561 24.0975 38.5003 24.0975 38.6513 24.2505L40.2978 25.9201C40.3701 25.9935 40.4108 26.0932 40.4108 26.1969C40.4108 26.3005 40.3701 26.4003 40.2978 26.4736L38.6513 28.1432C38.5758 28.2199 38.4769 28.2581 38.3783 28.2581Z" fill="white"/>
<path id="Path_17" d="M38.5923 28.1434C38.4416 27.9906 38.4416 27.7426 38.5925 27.5897L39.9658 26.197L38.5923 24.8041C38.4416 24.6513 38.4416 24.4033 38.5923 24.2505C38.6018 24.2409 38.6117 24.2318 38.6218 24.2235C38.47 24.0981 38.2466 24.1071 38.1052 24.2505C37.9545 24.4033 37.9545 24.6513 38.1052 24.8041L39.4787 26.197L38.1054 27.5897C37.9545 27.7426 37.9545 27.9906 38.1052 28.1434C38.1806 28.2199 38.2795 28.258 38.3783 28.258C38.4647 28.258 38.551 28.2288 38.6218 28.1704C38.6117 28.1619 38.6018 28.153 38.5923 28.1434Z" fill="#E6E7E8"/>
</g>
<path id="Path_18" d="M30.835 28.2581C30.7761 28.2581 30.7165 28.2444 30.6604 28.2155C30.4704 28.1175 30.3946 27.8819 30.4911 27.6892L32.164 24.3499C32.2607 24.1572 32.493 24.0804 32.6832 24.1783C32.8733 24.2763 32.9492 24.5119 32.8525 24.7046L31.1796 28.0438C31.1114 28.1797 30.9758 28.2581 30.835 28.2581Z" fill="white"/>
<path id="Path_19" d="M32.7032 24.1973C32.6763 24.1833 32.6482 24.1729 32.62 24.166C32.6413 24.2538 32.6329 24.3495 32.5892 24.4365L30.9163 27.7757C30.8483 27.9118 30.7126 27.99 30.5719 27.99C30.5413 27.99 30.5107 27.9862 30.4805 27.9787C30.5063 28.0855 30.5762 28.1808 30.6806 28.2345C30.7366 28.2634 30.7963 28.2771 30.8551 28.2771C30.9959 28.2771 31.1316 28.1987 31.1996 28.0627L32.8725 24.7234C32.9692 24.5309 32.8933 24.2953 32.7032 24.1973Z" fill="#E6E7E8"/>
</g>
</g>
<path id="Path_20" fill-rule="evenodd" clip-rule="evenodd" d="M29.269 14.7471H18.8718C18.5543 14.7471 18.2969 15.0081 18.2969 15.3301V16.472H29.844V15.3301C29.844 15.0081 29.5866 14.7471 29.269 14.7471Z" fill="#005862"/>
<path id="Path_21" d="M20.8082 16.6041C20.8082 16.7517 20.6901 16.8713 20.5447 16.8713C20.3991 16.8713 20.2812 16.7516 20.2812 16.6041C20.2812 16.4564 20.3993 16.3369 20.5447 16.3369C20.6901 16.3369 20.8082 16.4566 20.8082 16.6041Z" fill="white"/>
<path id="Path_22" d="M23.4918 16.6041C23.4918 16.7517 23.3737 16.8713 23.2283 16.8713C23.0827 16.8713 22.9648 16.7516 22.9648 16.6041C22.9648 16.4564 23.0829 16.3369 23.2283 16.3369C23.3737 16.3369 23.4918 16.4566 23.4918 16.6041Z" fill="white"/>
<path id="Path_23" d="M26.1793 16.6041C26.1793 16.7517 26.0612 16.8713 25.9158 16.8713C25.7702 16.8713 25.6523 16.7516 25.6523 16.6041C25.6523 16.4564 25.7704 16.3369 25.9158 16.3369C26.0614 16.3369 26.1793 16.4566 26.1793 16.6041Z" fill="white"/>
</g>
</g>
</g>
</g>
</g>
</g>
</g>
</g>
</g>
</g>
</g>
</g>
</svg>
