<svg width="20" height="20" viewBox="0 0 20 20" fill="none" xmlns="http://www.w3.org/2000/svg">
<path d="M8.22046 2.21493C8.22046 0.993788 9.18216 0 10.3639 0C11.5456 0 12.5073 0.993788 12.5073 2.21493C12.5073 3.43606 11.5456 4.42985 10.3639 4.42985C9.18216 4.42985 8.22046 3.43778 8.22046 2.21493ZM9.46716 2.21493C9.46716 2.72646 9.86884 3.14154 10.3639 3.14154C10.8589 3.14154 11.2606 2.72646 11.2606 2.21493C11.2606 1.70339 10.8589 1.28831 10.3639 1.28831C9.86884 1.28831 9.46716 1.70511 9.46716 2.21493Z" fill="#E2A610"/>
<path d="M12.2072 1.09375C12.2072 1.09375 12.3023 1.48472 11.8639 1.69829C11.4256 1.91014 11.1355 1.75341 11.1355 1.75341C11.2139 1.89119 11.2606 2.04792 11.2606 2.21844C11.2606 2.72997 10.8589 3.14505 10.3639 3.14505C9.86884 3.14505 9.46716 2.72997 9.46716 2.21844C9.46716 2.16677 9.47883 1.97214 9.55883 1.81024C8.81548 2.17538 8.25046 1.86363 8.25046 1.86363C8.23213 1.97903 8.22046 2.09787 8.22046 2.21844C8.22046 3.43957 9.18216 4.43336 10.3639 4.43336C11.5456 4.43336 12.5073 3.43957 12.5073 2.21671C12.5073 1.8068 12.3973 1.42272 12.2072 1.09375Z" fill="#9E740B"/>
<path d="M1.07671 15.8233C2.20508 14.6779 2.90843 14.2921 3.19511 12.6318C3.48178 10.9714 3.25178 7.47337 4.51515 5.18266C5.66852 3.08486 7.78525 2.2168 9.85032 2.2168C9.90032 2.2168 9.95032 2.22024 10.0003 2.22024C10.0503 2.21852 10.1003 2.2168 10.1503 2.2168C12.2154 2.2168 14.3321 3.08485 15.4855 5.18094C16.7472 7.47337 16.5189 10.9714 16.8055 12.63C17.0922 14.2904 17.7956 14.6762 18.9239 15.8215C19.4106 16.3159 19.999 17.103 20.0006 17.6093C20.0023 18.1157 19.7523 18.3 19.1573 18.5583C17.4739 19.2903 15.2238 19.9999 10.0003 19.9999C4.77682 19.9999 2.52675 19.2903 0.843368 18.5583C0.248349 18.3 -0.00165844 18.1174 8.27502e-06 17.6093C0.00167499 17.1047 0.590027 16.3176 1.07671 15.8233Z" fill="#FFCA28"/>
<path d="M18.284 17.6489C18.284 16.8859 14.5755 16.2676 10.0004 16.2676C5.42525 16.2676 1.7168 16.8859 1.7168 17.6489C1.7168 18.4119 5.42525 19.323 10.0004 19.323C14.5755 19.323 18.284 18.4119 18.284 17.6489Z" fill="#4E342E"/>
<path d="M14.9742 6.69209C15.0359 6.93494 15.0875 7.17778 15.1292 7.41547C15.3409 8.63144 15.3025 9.87841 15.3975 11.1099C15.5259 12.7582 15.8092 13.6262 16.4542 14.4013C16.5392 14.5029 16.4526 14.6596 16.3242 14.6389C15.4625 14.5029 14.7708 14.3668 13.9825 13.8295C12.8058 13.0286 12.5158 11.5215 12.5074 10.1678C12.4941 8.15263 12.5308 6.20122 12.3758 5.46061C12.1608 4.42893 11.9608 3.87951 11.6341 3.37831C11.1357 2.61359 13.0708 3.67455 13.3741 3.91051C14.2192 4.57017 14.7042 5.63113 14.9742 6.69209Z" fill="#E2A610"/>
<path d="M4.48159 9.3691C4.46159 8.06357 4.47159 6.71325 4.97493 5.51451C5.27661 4.79801 5.78829 4.15214 6.44165 3.75083C6.955 3.43565 7.99836 3.08773 8.37337 3.8025C8.44838 3.94546 8.47838 4.11252 8.48338 4.27615C8.49671 4.84624 8.21004 5.37327 7.93169 5.86586C7.10834 7.3264 6.77999 8.92301 6.34498 10.542C6.16664 11.2103 5.93997 11.8768 5.55162 12.4417C5.28495 12.8293 3.7999 14.2071 4.13991 12.9619C4.46659 11.758 4.49992 10.623 4.48159 9.3691Z" fill="#FFF59D"/>
<path d="M11.5152 17.3775C11.5136 17.0812 11.3586 16.9107 11.0019 16.7832C10.2619 16.5197 9.33518 16.568 8.79516 16.8676C8.22847 17.1811 8.62182 18.9189 10.0002 18.9189C11.3786 18.9189 11.5169 17.6031 11.5152 17.3775Z" fill="#E2A610"/>
<path d="M4.87537 14.7884C3.41199 15.0536 2.35195 15.6272 1.89361 16.0922C1.53026 16.4591 1.53026 16.7484 2.17028 16.447C2.65196 16.2197 4.19535 15.7581 5.54705 15.6186C7.86879 15.3774 9.30217 15.3723 9.54051 15.3774C10.0989 15.3895 10.1455 14.9451 9.01716 14.7884C7.88879 14.6334 6.33875 14.5249 4.87537 14.7884Z" fill="#FFF59D"/>
<path d="M9.41001 18.5805C9.60335 18.7183 9.86002 18.7855 10.0767 18.6925C10.2934 18.5995 10.4334 18.3153 10.3267 18.1C10.285 18.0156 10.2134 17.9519 10.1417 17.8933C9.94336 17.7331 9.72335 17.6022 9.49001 17.5058C9.39834 17.4679 9.30167 17.4334 9.20167 17.4403C9.10333 17.4455 9 17.4989 8.96166 17.5936C8.79666 17.9812 9.12667 18.3807 9.41001 18.5805Z" fill="#FFF59D"/>
</svg>
