<svg width="56" height="56" viewBox="0 0 56 56" fill="none" xmlns="http://www.w3.org/2000/svg">
<g clip-path="url(#clip0_2295_35144)">
<path d="M49.5838 43.0436L45.7338 43.9535C44.8705 44.1635 44.1938 44.8169 44.0072 45.6802L43.1905 49.1102C42.7472 50.9769 40.3672 51.5369 39.1305 50.0669L28.0005 37.2802L16.8705 50.0902C15.6338 51.5602 13.2538 51.0002 12.8105 49.1335L11.9938 45.7035C11.7838 44.8402 11.1072 44.1635 10.2672 43.9769L6.41718 43.0669C4.64384 42.6469 4.01384 40.4302 5.29718 39.1469L14.3972 30.0469C16.9172 33.7802 20.9072 36.4169 25.5505 37.0936C26.3438 37.2336 27.1605 37.3036 28.0005 37.3036C28.8405 37.3036 29.6572 37.2336 30.4505 37.0936C35.0938 36.4169 39.0838 33.7802 41.6038 30.0469L50.7038 39.1469C51.9872 40.4069 51.3572 42.6236 49.5838 43.0436Z" fill="#656B7C"/>
<g clip-path="url(#clip1_2295_35144)">
<path d="M49.5838 43.0514L45.7338 43.9613C44.8705 44.1713 44.1938 44.8247 44.0072 45.688L43.1905 49.1181C42.7472 50.9847 40.3672 51.5447 39.1305 50.0747L28.0005 37.288L16.8705 50.098C15.6338 51.568 13.2538 51.008 12.8105 49.1413L11.9938 45.7113C11.7838 44.848 11.1072 44.1714 10.2672 43.9847L6.41718 43.0747C4.64384 42.6547 4.01384 40.438 5.29718 39.1547L14.3972 30.0547C16.9172 33.788 20.9072 36.4247 25.5505 37.1014C26.3438 37.2414 27.1605 37.3114 28.0005 37.3114C28.8405 37.3114 29.6572 37.2414 30.4505 37.1014C35.0938 36.4247 39.0838 33.788 41.6038 30.0547L50.7038 39.1547C51.9872 40.4147 51.3572 42.6314 49.5838 43.0514Z" fill="#656B7C"/>
</g>
<path d="M28 6.99707C35.7412 6.99707 41.9998 13.2559 42 20.9971C42 23.9037 41.1426 26.5548 39.6699 28.7686C37.5021 31.9802 34.0806 34.2334 30.1143 34.8115L30.0791 34.8164L30.0449 34.8232C29.3911 34.9386 28.7099 34.9971 28 34.9971C27.2904 34.9971 26.6097 34.9386 25.9561 34.8232L25.9219 34.8164L25.8867 34.8115C22.0444 34.2516 18.7135 32.1198 16.5381 29.0674L16.3311 28.7686C14.8583 26.5548 14 23.9038 14 20.9971C14.0002 13.256 20.2589 6.99725 28 6.99707Z" fill="#DFE1E6" stroke="#BFC2CC" stroke-width="4.66667"/>
<g clip-path="url(#clip2_2295_35144)">
<path d="M28 6.99707C35.7412 6.99707 41.9998 13.2559 42 20.9971C42 23.9037 41.1426 26.5548 39.6699 28.7686C37.5021 31.9802 34.0806 34.2334 30.1143 34.8115L30.0791 34.8164L30.0449 34.8232C29.3911 34.9386 28.7099 34.9971 28 34.9971C27.2904 34.9971 26.6097 34.9386 25.9561 34.8232L25.9219 34.8164L25.8867 34.8115C22.0444 34.2516 18.7135 32.1198 16.5381 29.0674L16.3311 28.7686C14.8583 26.5548 14 23.9038 14 20.9971C14.0002 13.256 20.2589 6.99725 28 6.99707Z" fill="#BFC2CC" stroke="#9EA4B3" stroke-width="4.66667"/>
</g>
<path d="M28.1748 23.9043C28.7525 23.9043 29.2207 23.4361 29.2207 22.8584C29.2207 22.2808 28.7525 21.8125 28.1748 21.8125C27.5972 21.8125 27.1289 22.2808 27.1289 22.8584C27.1289 23.4361 27.5972 23.9043 28.1748 23.9043Z" fill="#9EA4B3"/>
<path d="M32.2051 18.8864V18.0844C32.2051 16.3519 31.788 14.0547 28.1755 14.0547C24.5629 14.0547 24.1458 16.3519 24.1458 18.0844V18.8864C22.3491 19.111 21.7588 20.0222 21.7588 22.2616V23.4551C21.7588 26.0859 22.5609 26.888 25.1917 26.888H31.1592C33.79 26.888 34.5921 26.0859 34.5921 23.4551V22.2616C34.5921 20.0222 34.0018 19.111 32.2051 18.8864ZM28.1755 24.7962C27.1039 24.7962 26.2376 23.9235 26.2376 22.8584C26.2376 21.7868 27.1103 20.9205 28.1755 20.9205C29.2406 20.9205 30.1133 21.7932 30.1133 22.8584C30.1133 23.9299 29.247 24.7962 28.1755 24.7962ZM25.1917 18.8287C25.1404 18.8287 25.0955 18.8287 25.0441 18.8287V18.0844C25.0441 16.2043 25.5767 14.953 28.1755 14.953C30.7742 14.953 31.3068 16.2043 31.3068 18.0844V18.8351C31.2555 18.8351 31.2105 18.8351 31.1592 18.8351H25.1917V18.8287Z" fill="#9EA4B3"/>
</g>
<defs>
<clipPath id="clip0_2295_35144">
<rect width="56" height="56" fill="white"/>
</clipPath>
<clipPath id="clip1_2295_35144">
<rect width="23.3333" height="21" fill="white" transform="translate(4.66699 30.3281)"/>
</clipPath>
<clipPath id="clip2_2295_35144">
<rect width="16.3333" height="32.6667" fill="white" transform="translate(27.998 4.66406)"/>
</clipPath>
</defs>
</svg>
