<svg preserveAspectRatio="none" width="100%" height="100%" overflow="visible" style="display: block;" viewBox="0 0 72.8696 95.881" fill="none" xmlns="http://www.w3.org/2000/svg">
<g id="account">
<path id="Path" fill-rule="evenodd" clip-rule="evenodd" d="M66.8307 77.9033V92.8848C66.8307 94.5624 65.5026 95.881 63.8112 95.881H9.05838C5.13308 95.881 1.75113 93.3639 0.543345 89.8885C0.181639 88.9295 0 87.9705 0 86.8922C0 81.9179 4.0456 71.9108 9.05838 71.9108C12.9837 71.9108 16.3051 74.4272 17.5734 77.9033H66.8307Z" fill="var(--fill-0, #18A957)"/>
<path id="Path_2" fill-rule="evenodd" clip-rule="evenodd" d="M66.8307 77.9034V92.8848C66.8307 94.5624 65.5026 95.881 63.8112 95.881H45.4932V77.9034H66.8307Z" fill="var(--fill-0, #11763D)"/>
<path id="Path_3" fill-rule="evenodd" clip-rule="evenodd" d="M72.8696 8.98885V80.8996C72.8696 82.5772 71.5415 83.8959 69.8501 83.8959H18.1167L12.0778 71.9108V5.99257H69.8501C71.5415 5.99257 72.8696 7.31046 72.8696 8.98885Z" fill="var(--fill-0, #DFE1E6)"/>
<path id="Path_4" fill-rule="evenodd" clip-rule="evenodd" d="M72.8696 8.98885V80.8996C72.8696 82.5772 71.5415 83.8959 69.8501 83.8959H45.4932V5.99257H69.8501C71.5415 5.99257 72.8696 7.31046 72.8696 8.98885Z" fill="var(--fill-0, #BFC2CC)"/>
<path id="Path_5" fill-rule="evenodd" clip-rule="evenodd" d="M60.5905 68.9145C60.5905 70.5921 59.2624 71.9108 57.571 71.9108H33.4153C31.724 71.9108 30.3959 70.5921 30.3959 68.9145C30.3959 67.2361 31.724 65.9182 33.4153 65.9182H57.571C59.2624 65.9182 60.5905 67.2361 60.5905 68.9145Z" fill="var(--fill-0, #5DC389)"/>
<path id="Path_6" fill-rule="evenodd" clip-rule="evenodd" d="M54.5515 44.9442C54.5515 48.8394 52.0157 52.1353 48.5126 53.3939V56.9294C48.5126 58.6078 47.1845 59.9257 45.4932 59.9257C43.8018 59.9257 42.4737 58.6078 42.4737 56.9294V53.3939C38.9707 52.1353 36.4348 48.8394 36.4348 44.9442C36.4348 43.2659 37.7629 41.948 39.4543 41.948C41.1456 41.948 42.4737 43.2659 42.4737 44.9442C42.4737 46.6226 43.8018 47.9405 45.4932 47.9405C47.1845 47.9405 48.5126 46.6226 48.5126 44.9442C48.5126 43.2659 47.1845 41.948 45.4932 41.948C40.4804 41.948 36.4348 37.9334 36.4348 32.9591C36.4348 29.0639 38.9707 25.768 42.4737 24.5094V20.974C42.4737 19.2956 43.8018 17.9777 45.4932 17.9777C47.1845 17.9777 48.5126 19.2956 48.5126 20.974V24.5094C52.0157 25.768 54.5515 29.0639 54.5515 32.9591C54.5515 34.6375 53.2235 35.9554 51.5321 35.9554C49.8407 35.9554 48.5126 34.6375 48.5126 32.9591C48.5126 31.2807 47.1845 29.9628 45.4932 29.9628C43.8018 29.9628 42.4737 31.2807 42.4737 32.9591C42.4737 34.6375 43.8018 35.9554 45.4932 35.9554C50.5059 35.9554 54.5515 39.9699 54.5515 44.9442Z" fill="var(--fill-0, #5DC389)"/>
<path id="Path_7" fill-rule="evenodd" clip-rule="evenodd" d="M54.5515 44.9442C54.5515 48.8394 52.0157 52.1353 48.5126 53.3939V56.9294C48.5126 58.6078 47.1845 59.9257 45.4932 59.9257V47.9405C47.1845 47.9405 48.5126 46.6226 48.5126 44.9442C48.5126 43.2659 47.1845 41.948 45.4932 41.948V35.9554C50.5059 35.9554 54.5515 39.9699 54.5515 44.9442Z" fill="var(--fill-0, #18A957)"/>
<path id="Path_8" fill-rule="evenodd" clip-rule="evenodd" d="M54.5515 32.9591C54.5515 34.6375 53.2235 35.9554 51.5321 35.9554C49.8407 35.9554 48.5126 34.6375 48.5126 32.9591C48.5126 31.2807 47.1845 29.9628 45.4932 29.9628V17.9777C47.1845 17.9777 48.5126 19.2956 48.5126 20.974V24.5094C52.0157 25.768 54.5515 29.0639 54.5515 32.9591Z" fill="var(--fill-0, #18A957)"/>
<path id="Path_9" fill-rule="evenodd" clip-rule="evenodd" d="M0 9.62946C0 9.21045 0 8.98885 0 8.98885C0 4.01455 4.0456 0 9.05837 0C14.0711 0 18.1167 4.01455 18.1167 8.98885V74.9071V83.8959C16.607 83.8959 18.1167 83.8959 18.1167 83.8959C16.449 83.8959 12.0778 82.5546 12.0778 80.8996C12.0778 79.2447 10.7262 77.9033 9.05837 77.9033C4.0456 77.9033 0 81.9179 0 86.8922C0 86.8922 0 17.0718 0 9.62946Z" fill="var(--fill-0, #5DC389)"/>
<path id="Path_10" fill-rule="evenodd" clip-rule="evenodd" d="M60.5905 68.9145C60.5905 70.5921 59.2624 71.9108 57.571 71.9108H45.4932V65.9182H57.571C59.2624 65.9182 60.5905 67.2361 60.5905 68.9145Z" fill="var(--fill-0, #18A957)"/>
</g>
</svg>
