<svg preserveAspectRatio="none" width="100%" height="100%" overflow="visible" style="display: block;" viewBox="0 0 95.881 81.5086" fill="none" xmlns="http://www.w3.org/2000/svg">
<g id="agile SVG">
<path id="Path" d="M40.3617 76.6618C39.6638 76.6618 38.966 76.6965 38.2681 76.6965H3.43872C1.2519 76.6965 0.00266361 75.4366 0 73.2338C0 71.2041 0 69.1744 0 67.1448C0 65.2243 1.33181 63.9245 3.26825 63.9165L11.1499 63.8818H36.3237C37.795 63.9801 39.2726 63.914 40.7293 63.6847C53.8529 62.313 63.7642 49.2533 59.7634 35.2427C61.3481 36.2208 63.048 36.9983 64.8243 37.5574C67.6078 38.3937 70.4365 38.5083 73.2999 38.1727C73.3638 38.764 73.4651 39.3526 73.4864 39.944C73.5757 42.5588 73.381 45.1755 72.9057 47.7483C71.2836 56.4956 66.9392 63.6181 59.9819 69.1025C55.6582 72.5475 50.5668 74.8977 45.1402 75.9533C43.5474 76.2596 41.9466 76.3902 40.3617 76.6618Z" fill="var(--fill-0, #E95C7B)"/>
<path id="Path_2" d="M36.329 63.8818H11.1632C7.6419 59.4523 5.09549 54.5406 3.99275 48.9656C1.64611 37.1152 4.49618 26.6499 12.5856 17.6788C16.7674 13.0388 21.9295 9.85581 27.888 7.97797C28.173 7.89007 28.4634 7.82348 28.751 7.74357C28.2796 8.68649 27.4006 9.2565 26.7054 9.99166C25.1658 11.6245 25.1258 13.3904 26.6468 15.0285C28.229 16.7333 29.8156 18.4362 31.4066 20.1374C31.1403 20.481 30.7168 20.5262 30.3598 20.6701C25.5813 22.5825 21.775 25.659 19.1727 30.1152C16.4025 34.8325 15.401 39.888 16.3439 45.3218C17.0271 49.3329 18.7989 53.0792 21.466 56.152C24.2628 59.423 27.7468 61.6018 31.8088 62.9389C33.2712 63.421 34.8161 63.5649 36.329 63.8818Z" fill="var(--fill-0, #00AFC4)"/>
<path id="Shape" fill-rule="evenodd" clip-rule="evenodd" d="M64.8163 37.5574C67.5998 38.3937 70.4285 38.5083 73.2919 38.1727C75.4204 37.7474 77.4844 37.0463 79.4316 36.0871C79.5146 36.0343 79.5989 35.9819 79.6834 35.9292C79.8806 35.8065 80.0788 35.683 80.2653 35.5543C86.9962 31.0848 90.2032 24.836 89.2523 16.7812C87.7314 3.93461 74.1363 -3.59809 62.3498 1.72913C59.268 3.11421 56.8335 5.25842 54.7399 7.85544L53.496 9.80254C51.2512 13.997 50.557 18.8485 51.5355 23.5042C52.5344 27.1719 54.2684 30.4242 57.0625 33.0639C57.9219 33.8371 58.8207 34.5652 59.7555 35.2454C61.3407 36.2215 63.0406 36.9981 64.8163 37.5574ZM81.4053 28.6396C81.1363 29.0924 80.6462 29.2629 80.1507 29.3348C80.1115 29.3323 80.0733 29.3355 80.0392 29.3384C79.9992 29.3418 79.9647 29.3447 79.9403 29.3375C78.4859 28.5042 77.4268 29.1949 76.3715 29.8831C75.9696 30.1452 75.5682 30.407 75.1458 30.584C74.653 30.7891 74.5199 31.3032 74.4213 31.8173C74.1549 33.2157 73.6941 33.5779 72.2425 33.5779C71.7773 33.5779 71.3119 33.58 70.8463 33.5821C69.915 33.5862 68.9832 33.5904 68.0526 33.5779C66.9472 33.5646 66.3799 33.1251 66.2174 32.0224C66.143 31.2117 65.6077 30.5167 64.843 30.2378C64.3831 30.0442 63.9484 29.7955 63.5484 29.4973C62.8802 28.9115 61.9231 28.7903 61.1299 29.191C60.2642 29.5825 59.5477 29.2629 59.0789 28.4958C58.2505 27.1347 57.4647 25.7443 56.6816 24.3538C56.1862 23.4722 56.3274 22.6758 57.1504 22.0711C57.8748 21.6088 58.2155 20.7301 57.9921 19.9003C57.9098 19.5417 57.9016 19.1701 57.9682 18.8082C58.2292 17.6655 57.8856 16.8291 56.9347 16.1313C56.3007 15.6678 56.2235 14.9113 56.5937 14.2348C57.4035 12.7458 58.2425 11.2702 59.1348 9.83184C59.5823 9.11267 60.3042 8.83565 61.1272 9.21655C61.9192 9.62174 62.8785 9.50131 63.5458 8.91289C63.9145 8.62812 64.3193 8.39345 64.7497 8.21503C65.5925 7.93768 66.1813 7.17481 66.236 6.28924C66.3506 5.31169 66.9898 4.82958 67.9487 4.82958C69.5131 4.8136 71.0758 4.8136 72.6367 4.82958C73.5956 4.84023 74.2455 5.30903 74.352 6.28657C74.4586 7.26412 74.9567 7.84479 75.8357 8.21503C76.3219 8.42828 76.7821 8.69638 77.2074 9.01411C77.8255 9.49181 78.6596 9.5814 79.365 9.24585C80.3319 8.85163 81.035 9.09136 81.5678 9.98367C82.3597 11.2942 83.1242 12.618 83.8611 13.9551C84.4232 14.9913 84.3086 15.6172 83.3577 16.387C82.7159 16.8397 82.4099 17.6345 82.5826 18.4007C82.671 18.7907 82.6828 19.1942 82.6172 19.5886C82.3642 20.7207 82.6971 21.5597 83.656 22.2523C84.2342 22.6622 84.398 23.4488 84.0316 24.0555C83.2006 25.6084 82.3056 27.1267 81.4053 28.6396Z" fill="var(--fill-0, #00AFC4)"/>
<path id="Path_3" d="M53.5146 9.80254C51.27 13.9961 50.5758 18.8467 51.5542 23.5015C49.4233 22.1111 47.2471 20.8379 44.7513 20.1986C43.1665 19.4794 41.4458 19.3836 39.7597 19.2078C38.3587 19.0613 38.3027 19.1492 38.3613 20.5396C38.4199 21.93 38.2761 23.2644 36.7632 23.941C35.7336 24.1608 34.6728 23.7407 34.0729 22.8755C33.8722 22.6591 33.6539 22.4595 33.4203 22.2789C32.8162 21.4982 32.1403 20.7759 31.4013 20.1214C29.8138 18.4167 28.2272 16.7137 26.6414 15.0126C25.1205 13.3744 25.1605 11.6085 26.7 9.97568C27.3952 9.24052 28.2742 8.67051 28.7457 7.72759C29.7499 7.12028 30.4451 6.1747 31.2788 5.38095C32.2137 4.4913 33.1433 3.58301 34.017 2.63743C34.7788 1.8197 35.6524 1.42815 36.7658 1.63058C37.9884 2.21924 38.4812 3.20478 38.348 4.53658C38.324 4.80294 38.3746 5.0693 38.348 5.33566C38.2388 6.13475 38.5211 6.40111 39.3708 6.42775C41.4783 6.49806 43.5759 6.74756 45.641 7.17356C48.3439 7.79482 50.9807 8.67522 53.5146 9.80254V9.80254Z" fill="var(--fill-0, #E95C7B)"/>
<path id="Path_4" d="M79.4901 81.4563C77.4951 81.5549 76.6854 80.7851 76.6827 78.7927C76.6827 76.6965 76.6827 76.6965 74.5518 76.6965C65.9821 76.6965 57.415 76.6965 48.8506 76.6965C48.4751 76.6965 48.0515 76.8563 47.7186 76.5446C53.1327 76.0357 58.3587 74.2956 62.9971 71.4571C66.3559 69.4195 69.2219 66.8118 71.8243 63.8925C73.2227 63.8925 74.6184 63.8925 76.0141 63.9351C76.5469 63.9511 76.72 63.762 76.6774 63.2506C76.6401 62.8217 76.6774 62.3849 76.6774 61.9534C76.6774 59.7692 77.4525 59.0474 79.6633 59.1646C80.1059 59.4538 80.5286 59.7724 80.9285 60.1182C83.3817 62.5447 85.8349 64.9739 88.2508 67.4404C89.9182 69.1398 89.8489 70.9644 88.2055 72.6851C86.562 74.4058 85.0464 76.1691 83.3897 77.8338C82.1404 79.0831 81.075 80.5534 79.4901 81.4563Z" fill="var(--fill-0, #00AFC4)"/>
<path id="Path_5" d="M71.8376 63.8845C69.2352 66.8145 66.3692 69.4115 63.0104 71.4492C58.372 74.2876 53.146 76.0278 47.7319 76.5367C47.0394 76.8483 46.3069 76.6725 45.601 76.6805C43.8564 76.6991 42.1117 76.6805 40.367 76.6619C41.9652 76.3955 43.5634 76.2596 45.1376 75.9533C50.5641 74.8977 55.6556 72.5475 59.9792 69.1025C66.9365 63.6181 71.2809 56.4957 72.903 47.7484C73.3783 45.1755 73.573 42.5588 73.4837 39.944C73.4624 39.3526 73.3612 38.764 73.2973 38.1727C75.4285 37.748 77.4952 37.0469 79.4449 36.0871C80.9258 46.3047 78.4584 55.4568 72.0427 63.5436C71.9655 63.6517 71.8969 63.7657 71.8376 63.8845Z" fill="var(--fill-0, #9C0F2E)"/>
<path id="Path_6" d="M79.4902 81.4563C81.0883 80.556 82.1538 79.0831 83.395 77.8258C85.0518 76.1611 86.5913 74.3632 88.2108 72.6771C89.8303 70.991 89.9235 69.1318 88.2561 67.4324C85.8402 64.9659 83.387 62.5367 80.9338 60.1102C80.5339 59.7644 80.1112 59.4458 79.6686 59.1566L85.3474 59.1273C86.0217 59.1449 86.658 59.4432 87.1028 59.9504C89.6651 62.5074 92.2462 65.0485 94.7793 67.6349C96.2629 69.1531 96.2336 70.9511 94.7793 72.5066C92.2968 75.1436 89.7877 77.7539 87.3212 80.4016C86.6949 81.147 85.755 81.5553 84.7827 81.5043C83.0114 81.443 81.2481 81.4697 79.4902 81.4563Z" fill="var(--fill-0, #008393)"/>
<path id="Path_7" d="M53.5146 9.80254C50.9787 8.67672 48.3402 7.7981 45.6357 7.17888C43.5705 6.75289 41.4729 6.50338 39.3655 6.43307C38.5158 6.39578 38.2335 6.14274 38.3427 5.34099C38.3773 5.07463 38.3267 4.80827 38.3427 4.54191C38.4759 3.2101 37.9831 2.22457 36.7605 1.63591C38.6543 1.63591 40.5482 1.58796 42.442 1.6146C43.8004 1.63324 44.6661 2.51756 44.7247 3.87068C44.7593 4.66976 44.4796 5.66595 44.8605 6.19867C45.2761 6.77668 46.3468 6.37714 47.1273 6.46504C49.7087 6.6754 52.2625 7.14387 54.7505 7.86343L53.5146 9.80254Z" fill="var(--fill-0, #9C0F2E)"/>
<path id="Path_8" d="M33.4177 22.2896C25.9409 26.5673 21.5593 35.4531 22.4676 43.8195C23.4717 53.0543 30.3066 61.3061 40.0208 63.4157C40.2605 63.4663 40.5668 63.4157 40.7346 63.6821C39.278 63.9113 37.8003 63.9775 36.329 63.8792C34.8161 63.5622 33.2738 63.4184 31.8009 62.9309C27.7388 61.5991 24.2548 59.415 21.4581 56.144C18.7909 53.0713 17.0191 49.3249 16.3359 45.3138C15.393 39.88 16.3945 34.8245 19.1647 30.1073C21.7803 25.651 25.5866 22.5746 30.3519 20.6621C30.7088 20.5182 31.135 20.473 31.3986 20.1294C32.1377 20.7847 32.8137 21.5079 33.4177 22.2896Z" fill="var(--fill-0, #008393)"/>
<path id="Shape_2" fill-rule="evenodd" clip-rule="evenodd" d="M80.0851 29.3371C80.1064 29.336 80.1285 29.3348 80.1507 29.3348C80.6435 29.2629 81.1336 29.0924 81.4026 28.6236C82.3029 27.1107 83.1979 25.5924 84.0289 24.0395C84.3953 23.4329 84.2315 22.6462 83.6534 22.2363C82.6945 21.5571 82.3482 20.718 82.6146 19.5727C82.6801 19.1782 82.6684 18.7747 82.5799 18.3847C82.4073 17.6185 82.7132 16.8237 83.3551 16.371C84.306 15.6012 84.4312 14.9753 83.8585 13.9391C83.118 12.602 82.3535 11.2782 81.5651 9.96768C81.0297 9.07537 80.3292 8.83565 79.3623 9.22986C78.6569 9.56542 77.8228 9.47582 77.2048 8.99813C76.7794 8.6804 76.3192 8.4123 75.833 8.19905C74.954 7.8288 74.4666 7.24814 74.3494 6.27059C74.2322 5.29305 73.5929 4.8136 72.634 4.8136C71.0714 4.79762 69.5087 4.79762 67.9461 4.8136C66.9872 4.82425 66.3372 5.29571 66.2334 6.27326C66.1786 7.15883 65.5899 7.92169 64.7471 8.19905C64.3167 8.37747 63.9118 8.61213 63.5431 8.89691C62.8758 9.48533 61.9166 9.60576 61.1246 9.20056C60.3015 8.81967 59.5797 9.09668 59.1322 9.81586C58.2399 11.2542 57.3902 12.7298 56.5911 14.2188C56.2208 14.8954 56.2981 15.6518 56.932 16.1153C57.8829 16.8132 58.2319 17.6495 57.9655 18.7922C57.899 19.1541 57.9071 19.5257 57.9895 19.8843C58.2128 20.7141 57.8721 21.5928 57.1478 22.0552C56.3247 22.6598 56.1836 23.4562 56.679 24.3379C57.4621 25.7283 58.2479 27.1187 59.0762 28.4798C59.545 29.2469 60.2615 29.5665 61.1272 29.175C61.9204 28.7743 62.8775 28.8955 63.5458 29.4813C63.9458 29.7795 64.3804 30.0282 64.8403 30.2218C65.6051 30.5007 66.1403 31.1958 66.2147 32.0064C66.3772 33.1091 66.9445 33.562 68.0499 33.562H72.2398C73.6915 33.5566 74.1523 33.1997 74.4186 31.8013C74.5172 31.2872 74.6504 30.7732 75.1431 30.5681C75.5673 30.3906 75.9701 30.1274 76.3733 29.8639C77.4285 29.1744 78.4865 28.4832 79.9376 29.3215C79.9746 29.3429 80.0272 29.3401 80.0851 29.3371ZM65.4823 19.1776C65.4872 16.534 67.6309 14.3933 70.2743 14.3919C72.9293 14.4009 75.0756 16.558 75.0712 19.2131C75.0565 21.8575 72.9035 23.9907 70.2591 23.9809C67.6146 23.9711 65.4774 21.8221 65.4823 19.1776ZM70.2743 14.3919C70.2751 14.3919 70.2759 14.3919 70.2767 14.3919H70.2741C70.2741 14.3919 70.2742 14.3919 70.2743 14.3919Z" fill="var(--fill-0, white)"/>
<path id="Path_9" d="M44.746 20.1986C44.9111 23.6 43.867 24.1248 40.8518 23.9863C39.4907 23.9223 38.1243 23.9543 36.7605 23.9437C38.2708 23.2671 38.4119 21.9752 38.3587 20.5422C38.3054 19.1092 38.3587 19.0613 39.7571 19.2104C41.4405 19.3836 43.1612 19.4794 44.746 20.1986Z" fill="var(--fill-0, #9C0F2E)"/>
<path id="Path_10" d="M70.2741 14.3919C72.2183 14.3834 73.9753 15.5498 74.722 17.3449C75.4688 19.1401 75.0575 21.2085 73.6807 22.5814C72.304 23.9542 70.2345 24.3598 68.4414 23.608C66.6484 22.8562 65.4868 21.096 65.5009 19.1518C65.5198 16.5257 67.6479 14.4035 70.2741 14.3919Z" fill="var(--fill-0, #00AFC4)"/>
</g>
</svg>
