<svg preserveAspectRatio="none" width="100%" height="100%" overflow="visible" style="display: block;" viewBox="0 0 49.8581 95.881" fill="none" xmlns="http://www.w3.org/2000/svg">
<g id="idea">
<path id="Path" d="M36.0083 47.7532V73.4088L25.4832 79.0274L24.9291 78.7464L13.8498 73.4088V47.7532L36.0083 47.7532Z" fill="var(--fill-0, #FFBB38)"/>
<path id="Path_2" d="M36.0083 47.7532V73.4088L25.4832 79.0274L24.9291 78.7464V47.7532H36.0083Z" fill="var(--fill-0, #B38327)"/>
<path id="Path_3" d="M36.0083 73.4088L24.9291 95.881L13.8498 73.4088H36.0083Z" fill="var(--fill-0, #FFCEBF)"/>
<path id="Path_4" d="M24.9291 73.4088H36.0083L24.9291 95.881V73.4088Z" fill="var(--fill-0, #FFB99C)"/>
<path id="Path_5" d="M49.8572 19.6634C49.8572 12.7528 44.8712 6.96606 38.3906 5.84216C37.2824 2.47143 34.1802 0 30.4682 0C28.3084 0 26.4246 0.841967 24.9291 2.19141C23.4336 0.841967 21.5498 0 19.389 0C15.678 0 12.5757 2.47143 11.4675 5.84216C4.986 6.96606 0 12.7528 0 19.6634C0 22.3031 0.776501 24.8872 2.16082 27.135C0.776501 29.0455 0 31.3487 0 33.7083C0 40.057 5.20746 45.2254 11.5231 44.9444C12.686 48.2024 15.7882 50.5629 19.389 50.5629H30.4682C34.069 50.5629 37.1712 48.2024 38.335 44.9444C44.5385 45.2254 49.8572 40.057 49.8572 33.7083C49.8572 31.3487 49.0816 29.0455 47.6964 27.135C49.0816 24.8872 49.8572 22.3031 49.8572 19.6634V19.6634Z" fill="var(--fill-0, #FFB99C)"/>
<path id="Path_6" d="M47.6973 27.135C49.0816 29.0445 49.8572 31.3477 49.8572 33.7083C49.8572 40.056 44.5395 45.2254 38.335 44.9444C37.1722 48.2024 34.0699 50.562 30.4692 50.562H24.9291V2.19045C26.4246 0.841967 28.3084 0 30.4692 0C34.1802 0 37.2824 2.47143 38.3906 5.84216C44.8712 6.96606 49.8581 12.7528 49.8581 19.6625C49.8572 22.3031 49.0816 24.8872 47.6973 27.135V27.135Z" fill="var(--fill-0, #FF9468)"/>
<path id="Path_7" d="M22.1595 44.9444H19.3899C17.8614 44.9444 16.6203 43.6848 16.5713 42.5934L17.1584 37.3734L12.9904 38.9532C9.04944 40.4374 5.54293 37.4365 5.54105 33.7083C5.54105 29.8827 9.54041 26.9554 13.2382 28.5284L15.3915 23.3553C12.5079 22.1215 9.36136 22.2753 6.61816 23.512C5.98584 22.3107 5.54105 21.0291 5.54105 19.6634C5.54105 15.0159 9.26807 11.2361 13.8498 11.2361H16.6194V8.42636C16.6194 6.87718 17.8614 5.61757 19.389 5.61757C20.9175 5.61757 22.1595 6.87718 22.1595 8.42636V44.9444Z" fill="var(--fill-0, #FFCEBF)"/>
<path id="Path_8" d="M36.8687 38.9532L32.7007 37.3734C32.8882 39.1663 33.17 42.7893 33.2388 42.1356C33.2388 43.6848 31.9967 44.9444 30.4682 44.9444H27.6987V8.42636C27.6987 6.87718 28.9407 5.61757 30.4682 5.61757C31.9967 5.61757 33.2388 6.87718 33.2388 8.42636V11.2361H36.0083C40.5901 11.2361 44.3171 15.0159 44.3171 19.6625C44.3171 21.0301 43.8723 22.3107 43.239 23.512C40.4949 22.2753 37.3455 22.1215 34.4638 23.3553L36.6218 28.5284C40.2998 26.9563 44.3171 29.8693 44.3171 33.7083C44.318 37.4336 40.82 40.4316 36.8687 38.9532V38.9532Z" fill="var(--fill-0, #FFB99C)"/>
</g>
</svg>
