<svg preserveAspectRatio="none" width="100%" height="100%" overflow="visible" style="display: block;" viewBox="0 0 95.881 95.881" fill="none" xmlns="http://www.w3.org/2000/svg">
<g id="management">
<g id="Group">
<path id="Path" fill-rule="evenodd" clip-rule="evenodd" d="M71.9258 60.5329H50.2905V45.2496C50.2905 43.9519 49.2383 42.8996 47.9405 42.8996C46.6427 42.8996 45.5905 43.9519 45.5905 45.2496V60.5329H23.9552C16.6295 60.5329 10.6697 66.4927 10.6697 73.8186V82.8615C10.6697 84.1593 11.7219 85.2115 13.0197 85.2115C14.3175 85.2115 15.3697 84.1593 15.3697 82.8615V73.8186C15.3697 69.0844 19.2211 65.2329 23.9552 65.2329H45.5905V82.8615C45.5905 84.1593 46.6427 85.2115 47.9405 85.2115C49.2383 85.2115 50.2905 84.1593 50.2905 82.8615V65.2329H71.9258C76.6599 65.2329 80.5113 69.0844 80.5113 73.8186V82.8615C80.5113 84.1593 81.5636 85.2115 82.8613 85.2115C84.1591 85.2115 85.2114 84.1593 85.2114 82.8615V73.8186C85.2114 66.4927 79.2515 60.5329 71.9258 60.5329V60.5329Z" fill="var(--fill-0, #9EA4B3)"/>
<path id="Path_2" fill-rule="evenodd" clip-rule="evenodd" d="M45.5905 56.1009H50.2905V60.5327H45.5905V56.1009Z" fill="var(--fill-0, #9EA4B3)"/>
<circle id="Oval" cx="13.0197" cy="82.8613" r="13.0197" fill="var(--fill-0, #5DC389)"/>
<circle id="Oval_2" cx="47.9405" cy="82.8613" r="13.0197" fill="var(--fill-0, #FFCF74)"/>
<circle id="Oval_3" cx="82.8613" cy="82.8613" r="13.0197" fill="var(--fill-0, #E95C7B)"/>
<path id="Path_3" fill-rule="evenodd" clip-rule="evenodd" d="M26.0402 82.8615C26.0402 90.0526 20.2102 95.8807 13.0191 95.8807C11.7106 95.8807 10.4473 95.687 9.25722 95.3279C14.6134 93.7149 18.5163 88.7441 18.5163 82.8615C18.5163 76.9789 14.6134 72.0082 9.25722 70.3951C10.4473 70.036 11.7106 69.8424 13.0191 69.8424C20.2102 69.8424 26.0402 75.6704 26.0402 82.8615Z" fill="var(--fill-0, #18A957)"/>
<path id="Path_4" fill-rule="evenodd" clip-rule="evenodd" d="M60.9597 82.8615C60.9597 90.0526 55.1316 95.8807 47.9405 95.8807C46.632 95.8807 45.3687 95.687 44.1786 95.3279C49.5348 93.7149 53.4358 88.7441 53.4358 82.8615C53.4358 76.9789 49.5348 72.0082 44.1786 70.3951C45.3687 70.036 46.632 69.8424 47.9405 69.8424C55.1316 69.8424 60.9597 75.6704 60.9597 82.8615Z" fill="var(--fill-0, #FFBB38)"/>
<path id="Path_5" fill-rule="evenodd" clip-rule="evenodd" d="M95.881 82.8615C95.881 90.0526 90.0511 95.8807 82.8619 95.8807C81.5534 95.8807 80.29 95.687 79.1 95.3279C84.4562 93.7149 88.3572 88.7441 88.3572 82.8615C88.3572 76.9789 84.4562 72.0082 79.1 70.3951C80.29 70.036 81.5534 69.8424 82.8619 69.8424C90.0511 69.8424 95.881 75.6704 95.881 82.8615Z" fill="var(--fill-0, #DF1642)"/>
</g>
<path id="Path_6" fill-rule="evenodd" clip-rule="evenodd" d="M74.856 21.0955C73.2463 9.18352 63.0395 0 50.6863 0C37.2148 0 26.294 10.9208 26.294 24.3923C26.187 24.3944 26.08 24.3923 25.9725 24.3923C17.2069 24.3923 10.1012 31.4982 10.1012 40.2636C10.1012 49.0291 17.2071 56.135 25.9725 56.135H67.4865C77.5894 56.135 85.7795 47.945 85.7795 37.842C85.7797 30.3612 81.2885 23.9302 74.856 21.0955Z" fill="var(--fill-0, #00CEE6)"/>
<path id="Path_7" fill-rule="evenodd" clip-rule="evenodd" d="M74.856 21.0955C73.2463 9.18352 63.0395 0 50.6863 0C49.4058 0 48.1485 0.0992651 46.9212 0.289335C57.5358 1.93153 65.8889 10.4163 67.332 21.0955C73.7647 23.9302 78.2559 30.3612 78.2559 37.842C78.2559 47.9448 70.0659 56.135 59.9629 56.135H67.4867C77.5896 56.135 85.7797 47.945 85.7797 37.842C85.7797 30.3612 81.2885 23.9302 74.856 21.0955V21.0955Z" fill="var(--fill-0, #00AFC4)"/>
</g>
</svg>
