<svg preserveAspectRatio="none" width="100%" height="100%" overflow="visible" style="display: block;" viewBox="0 0 70.4133 95.881" fill="none" xmlns="http://www.w3.org/2000/svg">
<g id="checklist">
<path id="Path" d="M67.3837 6.71116H3.02983C1.35644 6.71116 0 8.0674 0 9.74058V92.8512C0 94.5244 1.35644 95.881 3.02983 95.881H67.3835C69.0569 95.881 70.4133 94.5244 70.4133 92.8512V9.74058C70.4133 8.0674 69.0569 6.71116 67.3837 6.71116Z" fill="var(--fill-0, #FFBB38)"/>
<rect id="Rectangle" x="5.98226" y="13.702" width="58.4439" height="75.186" fill="var(--fill-0, #EFF0F2)"/>
<path id="Path_2" d="M40.4529 4.02203C40.4529 1.80094 38.1042 0 35.2067 0C32.3093 0 29.9607 1.80094 29.9607 4.02203H21.159V17.3119H49.2545V4.02203H40.4529Z" fill="var(--fill-0, #00A999)"/>
<rect id="Rectangle_2" x="21.157" y="26.775" width="39.2997" height="6.22837" fill="var(--fill-0, #BFC2CC)"/>
<path id="Path_3" d="M12.3578 34.8406L8.11838 31.0262C7.58051 30.5409 7.5371 29.7125 8.02112 29.1734C8.5076 28.637 9.33621 28.5921 9.87387 29.0762L12.1902 31.1619L17.5398 25.3897C18.0328 24.8621 18.8612 24.8301 19.3937 25.3193C19.9238 25.8123 19.9558 26.6419 19.4642 27.1733L12.3578 34.8406Z" fill="var(--fill-0, #4B5266)"/>
<rect id="Rectangle_3" x="21.6377" y="40.9424" width="39.2997" height="6.22837" fill="var(--fill-0, #BFC2CC)"/>
<path id="Path_4" d="M12.8367 49.0088L8.59728 45.1944C8.05941 44.7091 8.016 43.8807 8.50002 43.3416C8.9865 42.8064 9.81511 42.7616 10.3528 43.2444L12.6691 45.3301L18.0187 39.5579C18.5117 39.0291 19.3401 38.9983 19.8726 39.4875C20.4027 39.9805 20.4347 40.8101 19.9431 41.3415L12.8367 49.0088Z" fill="var(--fill-0, #4B5266)"/>
<rect id="Rectangle_4" x="22.1158" y="55.1098" width="39.2997" height="6.22837" fill="var(--fill-0, #BFC2CC)"/>
<path id="Path_5" d="M13.3156 63.1768L9.07618 59.3624C8.53831 58.8771 8.49491 58.0487 8.97892 57.5096C9.4654 56.9744 10.2926 56.9296 10.8317 57.4124L13.148 59.4981L18.4976 53.7259C18.9906 53.1971 19.819 53.1664 20.3515 53.6555C20.8816 54.1485 20.9136 54.9781 20.422 55.5095L13.3156 63.1768Z" fill="var(--fill-0, #4B5266)"/>
<rect id="Rectangle_5" x="22.5888" y="69.2772" width="39.2997" height="6.22837" fill="var(--fill-0, #BFC2CC)"/>
<path id="Path_6" d="M13.7943 77.3436L9.55487 73.5291C9.01701 73.0439 8.9736 72.2155 9.45762 71.6764C9.9441 71.14 10.7727 71.0964 11.3104 71.5791L13.6267 73.6649L18.9763 67.8927C19.4693 67.3638 20.2965 67.3331 20.8302 67.8223C21.3603 68.3153 21.3923 69.1449 20.9007 69.6762L13.7943 77.3436Z" fill="var(--fill-0, #4B5266)"/>
</g>
</svg>
