<svg preserveAspectRatio="none" width="100%" height="100%" overflow="visible" style="display: block;" viewBox="0 0 92.0458 92.0458" fill="none" xmlns="http://www.w3.org/2000/svg">
<g id="chat-3">
<path id="Path" fill-rule="evenodd" clip-rule="evenodd" d="M46.0229 0C20.6052 0 0 20.6052 0 46.0229C0 55.572 2.90878 64.442 7.88905 71.7953L0.988092 91.0577L20.2505 84.1567C27.6038 89.137 36.4738 92.0458 46.0229 92.0458C71.4406 92.0458 92.0458 71.4406 92.0458 46.0229C92.0458 20.6052 71.4406 0 46.0229 0Z" fill="var(--fill-0, #FFCF74)"/>
<path id="Path_2" fill-rule="evenodd" clip-rule="evenodd" d="M46.0229 0C71.4406 0 92.0458 20.6052 92.0458 46.0229C92.0458 71.4406 71.4406 92.0458 46.0229 92.0458L46.0229 0Z" fill="var(--fill-0, #FFBB38)"/>
<path id="Path_3" fill-rule="evenodd" clip-rule="evenodd" d="M64.9511 47.7035H56.7713V35.4338H74.4942V43.6136H64.9511V47.7035Z" fill="var(--fill-0, #00A999)"/>
<path id="Path_4" fill-rule="evenodd" clip-rule="evenodd" d="M27.0947 47.7035H35.2745V35.4338H17.5516V43.6136H27.0947V47.7035Z" fill="var(--fill-0, #00A999)"/>
<path id="Path_5" fill-rule="evenodd" clip-rule="evenodd" d="M42.0838 54.4995H34.2551C34.2551 60.9746 39.5225 66.2432 45.9988 66.2432L48.6083 62.3294L45.9988 58.4145C43.8404 58.4145 42.0838 56.6579 42.0838 54.4995V54.4995Z" fill="var(--fill-0, #00A999)"/>
<path id="Path_6" fill-rule="evenodd" clip-rule="evenodd" d="M49.9137 54.4995C49.9137 56.6579 48.1571 58.4145 45.9988 58.4145V66.2432C52.4739 66.2432 57.7425 60.9746 57.7425 54.4995H49.9137Z" fill="var(--fill-0, #007F73)"/>
</g>
</svg>
