<svg preserveAspectRatio="none" width="100%" height="100%" overflow="visible" style="display: block;" viewBox="0 0 94.9222 94.9222" fill="none" xmlns="http://www.w3.org/2000/svg">
<g id="advertisement">
<path id="Path" d="M90.9088 22.9277H4.01326C1.7967 22.9277 0 24.7213 0 26.934V90.9158C0 93.1285 1.7967 94.9222 4.01326 94.9222H90.9088C93.1253 94.9222 94.9222 93.1285 94.9222 90.9158V26.934C94.9222 24.7213 93.1253 22.9277 90.9088 22.9277V22.9277Z" fill="var(--fill-0, #4B5266)"/>
<path id="Path_2" d="M6.78875 31.4613H88.1335V82.7259H6.78875L6.78875 31.4613Z" fill="var(--fill-0, #EFF0F2)"/>
<g id="Group">
<path id="Path_3" d="M70.9059 11.075L66.8454 13.9633C66.1511 14.4572 65.9903 15.4181 66.4864 16.1094L69.3875 20.1524C69.8836 20.8437 70.8487 21.0037 71.543 20.5098L75.6035 17.6215C76.2979 17.1276 76.4586 16.1667 75.9625 15.4754L73.0614 11.4324C72.5653 10.7411 71.6003 10.5811 70.9059 11.075Z" fill="var(--fill-0, #FFBB38)"/>
<path id="Path_4" d="M58.7852 38.9828L61.3721 45.9205L45.9969 51.6036L43.4099 44.6659L40.7249 45.6583L43.7956 53.8936C44.0858 54.6717 44.9544 55.0683 45.7359 54.7794L63.6509 48.1575C64.4324 47.8687 64.8307 47.0038 64.5406 46.2257L61.4698 37.9904L58.7852 38.9828Z" fill="var(--fill-0, #00A999)"/>
<path id="Path_5" d="M56.4094 0.827469L27.4219 38.6781L35.3015 49.659L80.5907 34.6309C81.969 34.1735 82.5094 32.5188 81.6648 31.3418L59.8062 0.880114C58.9801 -0.271042 57.2708 -0.297465 56.4094 0.827469V0.827469Z" fill="var(--fill-0, #007F73)"/>
<path id="Path_6" d="M56.3701 0.878768L27.4219 38.6781L27.453 38.7214L17.9726 45.4651C18.6428 46.1855 19.4328 46.7989 20.3075 47.2867C23.9078 49.3184 28.4778 48.9844 33.2438 46.7913C40.183 43.5747 47.5664 36.4072 53.037 26.7261C58.0734 17.8108 60.4502 8.63251 60.1186 1.31558L59.8438 0.932624C58.9991 -0.244569 57.2512 -0.271666 56.3701 0.878768V0.878768Z" fill="var(--fill-0, #00A999)"/>
<path id="Path_7" d="M27.453 38.7214L35.2705 49.6158L21.6654 59.2935C20.6088 60.0451 19.1301 59.8127 18.3649 58.7463L13.2876 51.6707C12.5328 50.6187 12.7913 49.1507 13.8478 48.3991L27.453 38.7214Z" fill="var(--fill-0, #FFBB38)"/>
<path id="Path_8" d="M52.6398 45.6011C51.6081 45.6241 50.7905 46.4754 50.8135 47.5027C50.7905 46.4754 49.9354 45.6613 48.9037 45.6843C47.872 45.7073 47.0543 46.5586 47.0774 47.5859L47.2846 53.7652L43.6348 53.4622L43.4487 57.7736L47.4357 63.5275L48.5556 66.07L62.4379 65.7607L62.022 47.253C61.9989 46.2257 61.1438 45.4116 60.1121 45.4346C59.0804 45.4576 58.2627 46.3089 58.2858 47.3362C58.2627 46.3089 57.4077 45.4949 56.376 45.5179C55.3443 45.5408 54.5266 46.3921 54.5497 47.4195C54.5266 46.3921 53.6715 45.5781 52.6398 45.6011V45.6011Z" fill="var(--fill-0, #E7A14E)"/>
<path id="Path_9" d="M63.2192 82.7259V65.1691L47.7763 65.341L47.7763 82.7259H63.2192Z" fill="var(--fill-0, #DF1642)"/>
</g>
<path id="Path_10" d="M47.5135 88.1C46.1149 88.1 44.9809 89.2318 44.9809 90.6281C44.9809 92.0242 46.1149 93.1561 47.5135 93.1561C48.9121 93.1561 50.046 92.0242 50.046 90.6281C50.046 89.2318 48.9121 88.1 47.5135 88.1Z" fill="var(--fill-0, #383E4D)"/>
</g>
</svg>
