<svg preserveAspectRatio="none" width="100%" height="100%" overflow="visible" style="display: block;" viewBox="0 0 29.7032 34.7725" fill="none" xmlns="http://www.w3.org/2000/svg">
<g id="Group">
<path id="Path" d="M23.4868 9.41427C23.4868 14.6138 19.4089 18.8285 14.3781 18.8285C9.34738 18.8285 5.26943 14.6138 5.26943 9.41427C5.26943 4.21475 9.34738 0 14.3781 0C19.4089 0 23.4868 4.21475 23.4868 9.41427V9.41427Z" fill="var(--fill-0, #12254C)"/>
<path id="Path_2" d="M14.0299 0C14.0134 0 13.9959 0.00102494 13.9794 0.00102494V18.8275C13.9969 18.8275 14.0134 18.8285 14.0299 18.8285C19.253 18.8285 23.4868 14.6138 23.4868 9.41427C23.4868 4.21475 19.253 0 14.0299 0V0Z" fill="var(--fill-0, #12254C)"/>
<path id="Path_3" d="M14.527 34.7725C20.9523 34.7725 22.9502 34.7725 29.7032 29.2448C26.9233 23.4223 21.2643 19.6381 14.527 19.6381C14.4133 19.6381 14.2981 19.6273 14.1895 19.6399C7.76223 20.3821 5.18049 21.8351 0 27.5803C3.8825 32.8133 8.10179 34.7725 14.527 34.7725Z" fill="var(--fill-0, #12254C)"/>
</g>
</svg>
