<svg preserveAspectRatio="none" width="100%" height="100%" overflow="visible" style="display: block;" viewBox="0 0 70.6804 95.881" fill="none" xmlns="http://www.w3.org/2000/svg">
<g id="calculator">
<path id="Path" fill-rule="evenodd" clip-rule="evenodd" d="M63.2974 0H7.38303C3.31183 0 0 3.31202 0 7.38303V88.498C0 92.5692 3.31202 95.881 7.38303 95.881H63.2974C67.3686 95.881 70.6804 92.569 70.6804 88.498V7.38303C70.6804 3.31202 67.3684 0 63.2974 0Z" fill="var(--fill-0, #00D3BF)"/>
<path id="Path_2" fill-rule="evenodd" clip-rule="evenodd" d="M15.9691 34.7496C12.7123 34.7496 10.0626 32.0999 10.0626 28.8432V11.1237C10.0626 7.86693 12.7123 5.21728 15.9691 5.21728H60.4642C63.721 5.21728 66.3707 7.86693 66.3707 11.1237V28.843C66.3707 32.0997 63.721 34.7494 60.4642 34.7494H15.9691V34.7496Z" fill="var(--fill-0, #00A999)"/>
<path id="Path_3" fill-rule="evenodd" clip-rule="evenodd" d="M60.4642 31.7964H15.9691C14.3381 31.7964 13.0159 30.4741 13.0159 28.8432V11.1237C13.0159 9.49279 14.3381 8.17049 15.9691 8.17049H60.4642C62.0951 8.17049 63.4174 9.49279 63.4174 11.1237V28.843C63.4174 30.4741 62.0951 31.7964 60.4642 31.7964Z" fill="var(--fill-0, #EFF0F2)"/>
<path id="Path_4" fill-rule="evenodd" clip-rule="evenodd" d="M23.6819 52.5805H14.9505C12.8232 52.5805 11.0984 51.2582 11.0984 49.6272V42.9674C11.0984 41.3365 12.8232 40.0142 14.9505 40.0142H23.6819C25.8092 40.0142 27.534 41.3365 27.534 42.9674V49.6272C27.534 51.2582 25.8092 52.5805 23.6819 52.5805Z" fill="var(--fill-0, #FFCF74)"/>
<path id="Path_5" fill-rule="evenodd" clip-rule="evenodd" d="M15.0359 49.6272V42.9674C15.0359 41.3365 16.3582 40.0142 17.9891 40.0142H14.0514C12.4205 40.0142 11.0982 41.3365 11.0982 42.9674V49.6272C11.0982 51.2582 12.4205 52.5805 14.0514 52.5805H17.9891C16.3582 52.5805 15.0359 51.2582 15.0359 49.6272Z" fill="var(--fill-0, #FFBB38)"/>
<path id="Path_6" fill-rule="evenodd" clip-rule="evenodd" d="M23.6819 71.5151H14.9505C12.8232 71.5151 11.0984 70.1928 11.0984 68.5619V61.9021C11.0984 60.2712 12.8232 58.9489 14.9505 58.9489H23.6819C25.8092 58.9489 27.534 60.2712 27.534 61.9021V68.5619C27.534 70.1928 25.8092 71.5151 23.6819 71.5151Z" fill="var(--fill-0, #FFCF74)"/>
<path id="Path_7" fill-rule="evenodd" clip-rule="evenodd" d="M15.0359 68.5619V61.9021C15.0359 60.2712 16.3582 58.9489 17.9891 58.9489H14.0514C12.4205 58.9489 11.0982 60.2712 11.0982 61.9021V68.5619C11.0982 70.1928 12.4205 71.5151 14.0514 71.5151H17.9891C16.3582 71.5151 15.0359 70.1928 15.0359 68.5619Z" fill="var(--fill-0, #FFBB38)"/>
<path id="Path_8" fill-rule="evenodd" clip-rule="evenodd" d="M42.5824 71.5151H33.8511C31.7237 71.5151 29.999 70.1928 29.999 68.5619V61.9021C29.999 60.2712 31.7237 58.9489 33.8511 58.9489H42.5824C44.7097 58.9489 46.4345 60.2712 46.4345 61.9021V68.5619C46.4345 70.1928 44.7097 71.5151 42.5824 71.5151Z" fill="var(--fill-0, #FFCF74)"/>
<path id="Path_9" fill-rule="evenodd" clip-rule="evenodd" d="M33.9365 68.5619V61.9021C33.9365 60.2712 35.2588 58.9489 36.8897 58.9489H32.952C31.3211 58.9489 29.9988 60.2712 29.9988 61.9021V68.5619C29.9988 70.1928 31.3211 71.5151 32.952 71.5151H36.8897C35.2588 71.5151 33.9365 70.1928 33.9365 68.5619Z" fill="var(--fill-0, #FFBB38)"/>
<path id="Path_10" fill-rule="evenodd" clip-rule="evenodd" d="M23.6819 90.3816H14.9505C12.8232 90.3816 11.0984 89.0593 11.0984 87.4283V80.7685C11.0984 79.1376 12.8232 77.8153 14.9505 77.8153H23.6819C25.8092 77.8153 27.534 79.1376 27.534 80.7685V87.4283C27.534 89.0593 25.8092 90.3816 23.6819 90.3816Z" fill="var(--fill-0, #FFCF74)"/>
<path id="Path_11" fill-rule="evenodd" clip-rule="evenodd" d="M15.0359 87.4283V80.7685C15.0359 79.1376 16.3582 77.8153 17.9891 77.8153H14.0514C12.4205 77.8153 11.0982 79.1376 11.0982 80.7685V87.4283C11.0982 89.0593 12.4205 90.3816 14.0514 90.3816H17.9891C16.3582 90.3816 15.0359 89.0593 15.0359 87.4283Z" fill="var(--fill-0, #FFBB38)"/>
<path id="Path_12" fill-rule="evenodd" clip-rule="evenodd" d="M42.5824 52.5805H33.8511C31.7237 52.5805 29.999 51.2582 29.999 49.6272V42.9674C29.999 41.3365 31.7237 40.0142 33.8511 40.0142H42.5824C44.7097 40.0142 46.4345 41.3365 46.4345 42.9674V49.6272C46.4345 51.2582 44.7097 52.5805 42.5824 52.5805Z" fill="var(--fill-0, #FFCF74)"/>
<path id="Path_13" fill-rule="evenodd" clip-rule="evenodd" d="M33.9365 49.6272V42.9674C33.9365 41.3365 35.2588 40.0142 36.8897 40.0142H32.952C31.3211 40.0142 29.9988 41.3365 29.9988 42.9674V49.6272C29.9988 51.2582 31.3211 52.5805 32.952 52.5805H36.8897C35.2588 52.5805 33.9365 51.2582 33.9365 49.6272Z" fill="var(--fill-0, #FFBB38)"/>
<path id="Path_14" fill-rule="evenodd" clip-rule="evenodd" d="M61.483 71.5151H52.7516C50.6243 71.5151 48.8995 70.1928 48.8995 68.5619V42.9673C48.8995 41.3363 50.6243 40.014 52.7516 40.014H61.483C63.6103 40.014 65.3351 41.3363 65.3351 42.9673V68.5619C65.3351 70.1928 63.6103 71.5151 61.483 71.5151Z" fill="var(--fill-0, #5DC389)"/>
<path id="Path_15" fill-rule="evenodd" clip-rule="evenodd" d="M52.837 68.5619V42.9673C52.837 41.3363 54.1593 40.014 55.7902 40.014H51.8525C50.2216 40.014 48.8993 41.3363 48.8993 42.9673V68.5619C48.8993 70.1928 50.2216 71.5151 51.8525 71.5151H55.7902C54.1593 71.5151 52.837 70.1928 52.837 68.5619Z" fill="var(--fill-0, #18A957)"/>
<path id="Path_16" fill-rule="evenodd" clip-rule="evenodd" d="M61.483 90.3816H52.7516C50.6243 90.3816 48.8995 89.0593 48.8995 87.4283V80.7685C48.8995 79.1376 50.6243 77.8153 52.7516 77.8153H61.483C63.6103 77.8153 65.3351 79.1376 65.3351 80.7685V87.4283C65.3351 89.0593 63.6103 90.3816 61.483 90.3816Z" fill="var(--fill-0, #E95C7B)"/>
<path id="Path_17" fill-rule="evenodd" clip-rule="evenodd" d="M52.837 87.4283V80.7685C52.837 79.1376 54.1593 77.8153 55.7902 77.8153H51.8525C50.2216 77.8153 48.8993 79.1376 48.8993 80.7685V87.4283C48.8993 89.0593 50.2216 90.3816 51.8525 90.3816H55.7902C54.1593 90.3816 52.837 89.0593 52.837 87.4283Z" fill="var(--fill-0, #DF1642)"/>
<path id="Path_18" fill-rule="evenodd" clip-rule="evenodd" d="M42.5824 90.3816H33.8511C31.7237 90.3816 29.999 89.0593 29.999 87.4283V80.7685C29.999 79.1376 31.7237 77.8153 33.8511 77.8153H42.5824C44.7097 77.8153 46.4345 79.1376 46.4345 80.7685V87.4283C46.4345 89.0593 44.7097 90.3816 42.5824 90.3816Z" fill="var(--fill-0, #FFCF74)"/>
<path id="Path_19" fill-rule="evenodd" clip-rule="evenodd" d="M33.9365 87.4283V80.7685C33.9365 79.1376 35.2588 77.8153 36.8897 77.8153H32.952C31.3211 77.8153 29.9988 79.1376 29.9988 80.7685V87.4283C29.9988 89.0593 31.3211 90.3816 32.952 90.3816H36.8897C35.2588 90.3816 33.9365 89.0593 33.9365 87.4283Z" fill="var(--fill-0, #FFBB38)"/>
<path id="Shape" fill-rule="evenodd" clip-rule="evenodd" d="M53.9672 18.5067H52.6874V14.3722H55.9359C56.7515 14.3722 57.4125 13.7114 57.4125 12.8956C57.4125 12.0799 56.7515 11.419 55.9359 11.419H52.6874V10.9269C52.6874 10.1111 52.0263 9.45028 51.2108 9.45028C50.3952 9.45028 49.7342 10.1111 49.7342 10.9269V11.419H48.4544C46.5547 11.419 45.009 12.9647 45.009 14.8644V18.0144C45.009 19.914 46.5547 21.4598 48.4544 21.4598H49.7342V25.5942H46.4856C45.6701 25.5942 45.009 26.2551 45.009 27.0709C45.009 27.8866 45.6701 28.5475 46.4856 28.5475H49.7342V29.0396C49.7342 29.8553 50.3952 30.5162 51.2108 30.5162C52.0263 30.5162 52.6874 29.8553 52.6874 29.0396V28.5475H53.9672C55.8668 28.5475 57.4125 27.0018 57.4125 25.1021V21.9521C57.4125 20.0524 55.8668 18.5067 53.9672 18.5067ZM48.4544 18.5067C48.183 18.5067 47.9622 18.2859 47.9622 18.0146V14.8646C47.9622 14.593 48.1832 14.3724 48.4544 14.3724H49.7342V18.5069H48.4544V18.5067ZM54.4593 25.1023C54.4593 25.3738 54.2383 25.5944 53.9672 25.5944H52.6874V21.4599H53.9672C54.2385 21.4599 54.4593 21.6807 54.4593 21.9521V25.1023Z" fill="var(--fill-0, #00A999)"/>
<path id="Path_20" fill-rule="evenodd" clip-rule="evenodd" d="M6.3244 88.498V7.38303C6.3244 3.31202 9.63642 0 13.7074 0H7.38303C3.31183 0 0 3.31202 0 7.38303V88.498C0 92.5692 3.31202 95.881 7.38303 95.881H13.7074C9.63661 95.881 6.3244 92.569 6.3244 88.498Z" fill="var(--fill-0, #00A999)"/>
<g id="Group">
<path id="Path_21" d="M20.2749 50.1535C19.4594 50.1535 18.7983 49.4926 18.7983 48.6769V43.9517C18.7983 43.136 19.4594 42.4751 20.2749 42.4751C21.0905 42.4751 21.7515 43.136 21.7515 43.9517V48.6769C21.7515 49.4926 21.0903 50.1535 20.2749 50.1535Z" fill="var(--fill-0, #4C4C4C)"/>
<path id="Path_22" d="M22.6375 47.7909H17.9123C17.0968 47.7909 16.4357 47.13 16.4357 46.3143C16.4357 45.4986 17.0968 44.8377 17.9123 44.8377H22.6375C23.453 44.8377 24.1141 45.4986 24.1141 46.3143C24.1141 47.13 23.453 47.7909 22.6375 47.7909Z" fill="var(--fill-0, #4C4C4C)"/>
<path id="Path_23" d="M21.9453 68.3621C21.5674 68.3621 21.1895 68.2179 20.9013 67.9297L17.5601 64.5884C16.9835 64.0116 16.9835 63.0768 17.5601 62.5002C18.1367 61.9238 19.0717 61.9238 19.6481 62.5002L22.9894 65.8414C23.5659 66.4182 23.5659 67.3531 22.9894 67.9298C22.7013 68.2179 22.3234 68.3621 21.9453 68.3621Z" fill="var(--fill-0, #4C4C4C)"/>
<path id="Path_24" d="M18.6043 68.3621C18.2264 68.3621 17.8485 68.2179 17.5603 67.9297C16.9837 67.3529 16.9837 66.418 17.5603 65.8413L20.9015 62.5C21.4781 61.9236 22.4131 61.9236 22.9895 62.5C23.5661 63.0768 23.5661 64.0116 22.9895 64.5882L19.6483 67.9295C19.3601 68.2179 18.9822 68.3621 18.6043 68.3621Z" fill="var(--fill-0, #4C4C4C)"/>
<path id="Path_25" d="M37.6004 68.3621C37.2224 68.3621 36.8445 68.2179 36.5563 67.9297C35.9797 67.3529 35.9797 66.418 36.5563 65.8413L39.8976 62.5C40.4742 61.9236 41.4092 61.9236 41.9856 62.5C42.5622 63.0768 42.5622 64.0116 41.9856 64.5882L38.6444 67.9295C38.3562 68.2179 37.9783 68.3621 37.6004 68.3621Z" fill="var(--fill-0, #4C4C4C)"/>
<path id="Path_26" d="M18.503 87.4594C18.1251 87.4594 17.7472 87.3152 17.459 87.027C16.8824 86.4502 16.8824 85.5154 17.459 84.9388L20.8002 81.5976C21.3768 81.0212 22.3118 81.0212 22.8882 81.5976C23.4648 82.1744 23.4648 83.1092 22.8882 83.686L19.547 87.0272C19.2588 87.3154 18.8807 87.4594 18.503 87.4594Z" fill="var(--fill-0, #4C4C4C)"/>
<path id="Path_27" d="M17.7155 83.4264C17.3376 83.4264 16.9597 83.2822 16.6715 82.994C16.0949 82.4172 16.0949 81.4824 16.6715 80.9056L17.0653 80.5118C17.6419 79.9354 18.577 79.9354 19.1534 80.5118C19.73 81.0886 19.73 82.0234 19.1534 82.6L18.7595 82.9938C18.4713 83.2822 18.0932 83.4264 17.7155 83.4264Z" fill="var(--fill-0, #4C4C4C)"/>
<path id="Path_28" d="M22.4407 88.1516C22.0628 88.1516 21.6848 88.0074 21.3966 87.7192C20.82 87.1424 20.82 86.2075 21.3966 85.6308L21.7905 85.2369C22.3671 84.6605 23.3021 84.6605 23.8785 85.2369C24.4551 85.8137 24.4551 86.7486 23.8785 87.3253L23.4847 87.7192C23.1965 88.0074 22.8184 88.1516 22.4407 88.1516Z" fill="var(--fill-0, #4C4C4C)"/>
<path id="Path_29" d="M41.538 47.9877H36.8129C35.9973 47.9877 35.3363 47.3268 35.3363 46.5111C35.3363 45.6954 35.9973 45.0345 36.8129 45.0345H41.538C42.3536 45.0345 43.0146 45.6954 43.0146 46.5111C43.0146 47.3268 42.3536 47.9877 41.538 47.9877Z" fill="var(--fill-0, #4C4C4C)"/>
<path id="Path_30" d="M60.4386 54.0911H55.7134C54.8979 54.0911 54.2368 53.4303 54.2368 52.6145C54.2368 51.7988 54.8979 51.1379 55.7134 51.1379H60.4386C61.2541 51.1379 61.9152 51.7988 61.9152 52.6145C61.9152 53.4303 61.2541 54.0911 60.4386 54.0911Z" fill="var(--fill-0, #4C4C4C)"/>
<path id="Path_31" d="M60.4386 58.8163H55.7134C54.8979 58.8163 54.2368 58.1554 54.2368 57.3397C54.2368 56.5239 54.8979 55.8631 55.7134 55.8631H60.4386C61.2541 55.8631 61.9152 56.5239 61.9152 57.3397C61.9152 58.1552 61.2541 58.8163 60.4386 58.8163Z" fill="var(--fill-0, #4C4C4C)"/>
<path id="Path_32" d="M58.2728 88.3484C56.0473 88.3484 54.2368 86.5379 54.2368 84.3124C54.2368 82.0869 56.0473 80.2764 58.2728 80.2764C59.3198 80.2764 60.3124 80.6755 61.0676 81.4004C61.6558 81.9652 61.6749 82.8998 61.1103 83.488C60.5457 84.0763 59.611 84.0954 59.0226 83.5309C58.8202 83.3365 58.5541 83.2294 58.2732 83.2294C57.676 83.2294 57.1904 83.7152 57.1904 84.3122C57.1904 84.9092 57.6762 85.395 58.2732 85.395C58.5541 85.395 58.8204 85.2879 59.023 85.0935C59.6114 84.5291 60.5461 84.5482 61.1107 85.1368C61.6753 85.7251 61.6558 86.6598 61.0674 87.2244C60.312 87.9493 59.3195 88.3484 58.2728 88.3484Z" fill="var(--fill-0, #4C4C4C)"/>
<path id="Path_33" d="M39.1755 85.592C38.3599 85.592 37.6989 84.9311 37.6989 84.1154V83.7216C37.6989 82.9058 38.3599 82.245 39.1755 82.245C39.991 82.245 40.6521 82.9058 40.6521 83.7216V84.1154C40.6521 84.9311 39.991 85.592 39.1755 85.592Z" fill="var(--fill-0, #4C4C4C)"/>
</g>
</g>
</svg>
