<svg preserveAspectRatio="none" width="100%" height="100%" overflow="visible" style="display: block;" viewBox="0 0 95.881 36.0919" fill="none" xmlns="http://www.w3.org/2000/svg">
<g id="kindness">
<path id="Path" fill-rule="evenodd" clip-rule="evenodd" d="M85.3657 9.43226L63.2016 23.2034L47.5698 14.5893L64.9141 9.95943C67.1767 8.83827 68.3242 6.28042 67.6513 3.85715C66.9464 1.3176 64.4593 -0.310279 61.8347 0.049728L39.6283 0.680335C36.6506 0.764748 33.6926 1.18896 30.812 1.94393L0 10.8854C0 18.046 0 18.0457 0 31.8415C8.30532 28.5213 24.9627 24.2422 24.9627 24.2422L53.7584 35.0498C58.8391 36.9388 64.5285 36.2316 68.9849 33.157L95.881 14.0826L94.2417 11.3802C92.3573 8.37031 88.3503 7.49098 85.3657 9.43226Z" fill="var(--fill-0, #7E8599)"/>
<path id="Path_2" fill-rule="evenodd" clip-rule="evenodd" d="M94.2417 11.3804C92.357 8.37031 88.3503 7.49098 85.3657 9.43226L63.2016 23.2034L47.5698 14.5893L64.9141 9.95943C67.1767 8.83827 68.3242 6.28042 67.6513 3.85715C66.9464 1.3176 64.4593 -0.310279 61.8347 0.049728L39.6283 0.680335C39.5697 0.681999 39.5111 0.685804 39.4525 0.687706V29.6801L53.7583 35.0493C58.8391 36.9383 64.5285 36.2311 68.9849 33.1566L95.881 14.0822L94.2417 11.3804Z" fill="var(--fill-0, #5E6780)"/>
</g>
</svg>
