<svg preserveAspectRatio="none" width="100%" height="100%" overflow="visible" style="display: block;" viewBox="0 0 72.8696 25.8879" fill="none" xmlns="http://www.w3.org/2000/svg">
<g id="connections">
<path id="Path" d="M72.8696 13.983V23.1988C72.8696 24.6851 71.4156 25.8879 69.6188 25.8879C67.8244 25.8879 66.3679 24.6851 66.3679 23.1988V16.6721H39.6856V23.1988C39.6856 24.6851 38.2291 25.8879 36.4348 25.8879C34.6405 25.8879 33.184 24.6851 33.184 23.1988V16.6721H6.50168V23.1988C6.50168 24.6851 5.04515 25.8879 3.25084 25.8879C1.45404 25.8879 0 24.6851 0 23.1988V13.983C0 12.4987 1.45404 11.2939 3.25084 11.2939H33.184V2.68909C33.184 1.20415 34.6405 0 36.4348 0C38.2291 0 39.6856 1.20415 39.6856 2.68909V11.2939H69.6188C71.4156 11.2939 72.8696 12.4987 72.8696 13.983Z" fill="var(--fill-0, #00AFC4)"/>
<path id="Path_2" d="M72.8696 13.983V23.1988C72.8696 24.6851 71.4156 25.8879 69.6188 25.8879C67.8244 25.8879 66.3679 24.6851 66.3679 23.1988V16.6721H39.6856V23.1988C39.6856 24.6851 38.2291 25.8879 36.4348 25.8879V0C38.2291 0 39.6856 1.20415 39.6856 2.68909V11.2939H69.6188C71.4156 11.2939 72.8696 12.4987 72.8696 13.983Z" fill="var(--fill-0, #008393)"/>
</g>
</svg>
