<svg preserveAspectRatio="none" width="100%" height="100%" overflow="visible" style="display: block;" viewBox="0 0 95.881 95.881" fill="none" xmlns="http://www.w3.org/2000/svg">
<g id="analytics">
<path id="Path" fill-rule="evenodd" clip-rule="evenodd" d="M93.3082 93.3079V93.3079C89.8774 96.7388 84.3147 96.7388 80.8839 93.3079L49.8239 62.247L62.2482 49.8224L93.3082 80.8833C96.7386 84.3145 96.7386 89.877 93.3082 93.3079Z" fill="var(--fill-0, #00D3BF)"/>
<path id="Path_2" fill-rule="evenodd" clip-rule="evenodd" d="M49.8239 62.2467L80.8839 93.3075C84.3147 96.7384 89.8774 96.7384 93.3082 93.3075C93.3518 93.2639 93.3882 93.2164 93.431 93.1714L56.1654 55.9051L49.8239 62.2467Z" fill="var(--fill-0, #00A999)"/>
<ellipse id="Oval" cx="35.1431" cy="35.1394" rx="35.1384" ry="35.1394" fill="var(--fill-0, #324A5E)"/>
<path id="Path_3" d="M10.4253 10.1637C10.3817 10.2065 10.3359 10.2462 10.2923 10.2897C-3.43078 24.0132 -3.43078 46.264 10.2923 59.9875C24.0155 73.711 46.2657 73.711 59.9891 59.9875C60.0327 59.9439 60.0723 59.8982 60.1152 59.8546L10.4253 10.1637Z" fill="var(--fill-0, #2B3B4E)"/>
<ellipse id="Oval_2" cx="35.1431" cy="35.1394" rx="26.3585" ry="26.3592" fill="var(--fill-0, #99F1FB)"/>
<path id="Path_4" fill-rule="evenodd" clip-rule="evenodd" d="M16.637 16.3756C16.5935 16.4185 16.5477 16.4581 16.5041 16.5017C6.21178 26.7943 6.21178 43.4822 16.5041 53.7752C26.7965 64.0678 43.4839 64.0678 53.7766 53.7752C53.8202 53.7316 53.8598 53.6862 53.9027 53.6423L16.637 16.3756Z" fill="var(--fill-0, #66E9F9)"/>
<path id="Rectangle" fill-rule="evenodd" clip-rule="evenodd" d="M90.2961 77.8745L77.8709 90.3001L56.7876 69.2161L69.2128 56.7906L90.2961 77.8745Z" fill="var(--fill-0, #66E5D9)"/>
</g>
</svg>
