<svg preserveAspectRatio="none" width="100%" height="100%" overflow="visible" style="display: block;" viewBox="0 0 55.9002 95.8803" fill="none" xmlns="http://www.w3.org/2000/svg">
<g id="Group">
<path id="Path" d="M49.5575 95.8803H6.34264C2.83941 95.8803 0 93.0001 0 89.4483V6.43203C0 2.87943 2.84015 0 6.34264 0H49.5575C53.0608 0 55.9002 2.88018 55.9002 6.43203V89.4483C55.9009 93.0001 53.0608 95.8803 49.5575 95.8803Z" fill="var(--fill-0, #E95C7B)"/>
<path id="Path_2" d="M51.2757 88.5771H4.62518C3.74975 88.5771 3.03915 87.8572 3.03915 86.9687V8.91087C3.03915 8.02309 3.749 7.30248 4.62518 7.30248H51.2757C52.1519 7.30248 52.8618 8.02234 52.8618 8.91087V86.9694C52.8618 87.8572 52.1512 88.5771 51.2757 88.5771Z" fill="var(--fill-0, #E6E7E8)"/>
<rect id="Rectangle" x="7.92867" y="7.30248" width="40.0436" height="81.2746" fill="var(--fill-0, white)"/>
<path id="Path_3" d="M48.91 39.8429H6.99086C6.0241 39.8429 5.23999 39.0477 5.23999 38.0673V22.8811C5.23999 21.9007 6.0241 21.1055 6.99086 21.1055H48.91C49.8768 21.1055 50.6609 21.9007 50.6609 22.8811V38.0673C50.6609 39.0477 49.8768 39.8429 48.91 39.8429Z" fill="var(--fill-0, #D1D3D4)"/>
<rect id="Rectangle_2" x="7.87966" y="21.1552" width="40.0436" height="18.7381" fill="var(--fill-0, #E6E7E8)"/>
<path id="Path_4" d="M48.91 62.4506H6.99086C6.0241 62.4506 5.23999 61.6555 5.23999 60.6751V45.4888C5.23999 44.5076 6.0241 43.7132 6.99086 43.7132H48.91C49.8768 43.7132 50.6609 44.5084 50.6609 45.4888V60.6751C50.6609 61.6555 49.8768 62.4506 48.91 62.4506Z" fill="var(--fill-0, #D1D3D4)"/>
<rect id="Rectangle_3" x="7.87966" y="43.7629" width="40.0436" height="18.7381" fill="var(--fill-0, #E6E7E8)"/>
<path id="Path_5" d="M48.91 85.0591H6.99086C6.0241 85.0591 5.23999 84.2639 5.23999 83.2835V68.0973C5.23999 67.1169 6.0241 66.3217 6.99086 66.3217H48.91C49.8768 66.3217 50.6609 67.1169 50.6609 68.0973V83.2835C50.6609 84.2639 49.8768 85.0591 48.91 85.0591Z" fill="var(--fill-0, #D1D3D4)"/>
<rect id="Rectangle_4" x="7.87966" y="66.3707" width="40.0436" height="18.7381" fill="var(--fill-0, #E6E7E8)"/>
<g id="Group_2">
<path id="Path_6" d="M3.03915 8.91087V18.0898H52.861V8.91087C52.861 8.02234 52.1512 7.30248 51.275 7.30248H4.62518C3.749 7.30248 3.03915 8.02234 3.03915 8.91087Z" fill="var(--fill-0, #BCBEC0)"/>
<rect id="Rectangle_5" x="7.92867" y="7.30248" width="40.0436" height="10.7873" fill="var(--fill-0, #D1D3D4)"/>
<path id="Path_7" d="M12.4254 12.6961C12.4254 14.3241 11.1237 15.6441 9.51841 15.6441C7.91308 15.6441 6.61143 14.3241 6.61143 12.6961C6.61143 11.0682 7.91308 9.74819 9.51841 9.74819C11.1237 9.74819 12.4254 11.0682 12.4254 12.6961Z" fill="var(--fill-0, #D1D3D4)"/>
<path id="Path_8" d="M9.51841 9.74819C8.93182 9.74819 8.38606 9.92514 7.92867 10.2286V15.1644C8.38606 15.4679 8.93182 15.6448 9.51841 15.6448C11.1237 15.6448 12.4254 14.3249 12.4254 12.6969C12.4254 11.0682 11.1237 9.74819 9.51841 9.74819Z" fill="var(--fill-0, white)"/>
<path id="Shape" fill-rule="evenodd" clip-rule="evenodd" d="M43.1325 10.014C43.1325 9.63675 43.4339 9.33028 43.8067 9.33028H48.8677C49.2405 9.33028 49.5419 9.63599 49.5419 10.014C49.5419 10.3912 49.2405 10.6977 48.8677 10.6977H43.8067C43.4339 10.6977 43.1325 10.3912 43.1325 10.014ZM48.867 12.0124H43.8059C43.4339 12.0124 43.1317 12.3181 43.1317 12.6961C43.1317 13.0734 43.4332 13.3799 43.8059 13.3799H48.867C49.2397 13.3799 49.5412 13.0741 49.5412 12.6961C49.5412 12.3189 49.2397 12.0124 48.867 12.0124ZM43.8059 14.6953H48.867C49.2397 14.6953 49.5412 15.001 49.5412 15.379C49.5412 15.757 49.2397 16.0628 48.867 16.0628H43.8059C43.4332 16.0628 43.1317 15.7563 43.1317 15.379C43.1317 15.001 43.4339 14.6953 43.8059 14.6953Z" fill="var(--fill-0, #D1D3D4)"/>
<g id="Group_3">
<path id="Path_9" d="M43.1325 12.6961V12.6961C43.1325 13.0734 43.4339 13.3799 43.8067 13.3799H47.9722V12.0124H43.8067C43.4339 12.0124 43.1325 12.3189 43.1325 12.6961Z" fill="var(--fill-0, white)"/>
<path id="Path_10" d="M47.9722 14.6953H43.8067C43.4347 14.6953 43.1325 15.001 43.1325 15.379C43.1325 15.7563 43.4339 16.0628 43.8067 16.0628H47.9722V14.6953Z" fill="var(--fill-0, white)"/>
<path id="Path_11" d="M43.1325 10.014C43.1325 10.3912 43.4339 10.6977 43.8067 10.6977H47.9722V9.33103H43.8067C43.4339 9.33028 43.1325 9.63675 43.1325 10.014Z" fill="var(--fill-0, white)"/>
</g>
</g>
</g>
</svg>
