<svg preserveAspectRatio="none" width="100%" height="100%" overflow="visible" style="display: block;" viewBox="0 0 95.881 66.1577" fill="none" xmlns="http://www.w3.org/2000/svg">
<g id="Group">
<path id="Path" fill-rule="evenodd" clip-rule="evenodd" d="M89.8795 66.1577H6.00159C2.68692 66.1577 0 63.4562 0 60.1238V6.03415C0 2.70169 2.68692 0 6.00159 0H89.8795C93.1941 0 95.881 2.70169 95.881 6.03415V60.1238C95.881 63.4562 93.1941 66.1577 89.8795 66.1577Z" fill="var(--fill-0, #18A957)"/>
<path id="Path_2" fill-rule="evenodd" clip-rule="evenodd" d="M7.28358 15.9368C10.329 14.8207 12.7422 12.3431 13.826 9.21936C14.3818 7.61759 15.9172 6.56984 17.6043 6.56984H78.2767C79.9639 6.56984 81.4995 7.61778 82.055 9.21936C83.1386 12.3431 85.552 14.8207 88.5975 15.9368C90.1643 16.5111 91.181 18.0422 91.181 19.719V46.4389C91.181 48.1158 90.1643 49.647 88.5975 50.2211C85.552 51.3373 83.1388 53.8148 82.055 56.9386C81.4993 58.5403 79.9639 59.5881 78.2767 59.5881H17.6043C15.9172 59.5881 14.3816 58.5401 13.826 56.9386C12.7424 53.8148 10.329 51.3373 7.28358 50.2211C5.71677 49.6468 4.70005 48.1156 4.70005 46.4389V19.719C4.70005 18.0422 5.71677 16.5111 7.28358 15.9368V15.9368Z" fill="var(--fill-0, #11763D)"/>
<ellipse id="Oval" cx="47.9405" cy="33.0789" rx="18.8002" ry="18.9022" fill="var(--fill-0, #D1EEDD)"/>
<path id="Path_3" fill-rule="evenodd" clip-rule="evenodd" d="M47.9405 14.1767C46.652 14.1767 45.3938 14.3073 44.1782 14.5556C52.7584 16.3079 59.2161 23.9351 59.2161 33.0789C59.2161 42.2226 52.7584 49.8499 44.1782 51.6021C45.3938 51.8505 46.652 51.9811 47.9405 51.9811C58.3235 51.9811 66.7407 43.5184 66.7407 33.0789C66.7407 22.6394 58.3235 14.1767 47.9405 14.1767Z" fill="var(--fill-0, #A3DDBC)"/>
</g>
</svg>
