<svg preserveAspectRatio="none" width="100%" height="100%" overflow="visible" style="display: block;" viewBox="0 0 94.0451 95.881" fill="none" xmlns="http://www.w3.org/2000/svg">
<g id="layout">
<path id="Path" d="M82.7229 28.7643C80.1919 28.7643 78.1327 30.8235 78.1327 33.3544V80.989H51.4085V65.9948C51.4085 63.4639 49.3493 61.4047 46.8184 61.4047C44.2875 61.4047 42.2283 63.4639 42.2283 65.9948V80.989H14.6882V53.4486H26.4182C28.9491 53.4486 31.0083 51.3894 31.0083 48.8585C31.0083 46.3276 28.9491 44.2684 26.4182 44.2684H14.6882V18.3603H59.0586C61.5895 18.3603 63.6487 16.3011 63.6487 13.7702C63.6487 11.2392 61.5895 9.18005 59.0586 9.18005H10.098C7.56711 9.18005 5.50792 11.2392 5.50792 13.7702V85.5789C5.50792 88.1098 7.56711 90.169 10.098 90.169H82.7229C85.2538 90.169 87.313 88.1098 87.313 85.5789V33.3544C87.313 30.8235 85.2538 28.7643 82.7229 28.7643Z" fill="var(--fill-0, #9BAAAB)"/>
<path id="Path_2" d="M82.7229 28.7643C80.1919 28.7643 78.1327 30.8235 78.1327 33.3544V80.989H51.4085V65.9948C51.4085 63.4639 49.3493 61.4047 46.8184 61.4047C44.2875 61.4047 42.2283 63.4639 42.2283 65.9948V80.989H14.6882V79.3569L6.14238 87.9027C6.94126 89.2574 8.41487 90.169 10.0982 90.169H82.7231C85.254 90.169 87.3132 88.1098 87.3132 85.5789V33.3544C87.313 30.8235 85.2538 28.7643 82.7229 28.7643Z" fill="var(--fill-0, #687F82)"/>
<g id="Group">
<path id="Path_3" d="M83.5388 75.2767C77.8582 75.2767 73.2366 79.8981 73.2366 85.5789C73.2366 91.2597 77.8582 95.881 83.5388 95.881C89.2194 95.881 93.8409 91.2597 93.8409 85.5789C93.8409 79.8981 89.2196 75.2767 83.5388 75.2767Z" fill="var(--fill-0, #B38327)"/>
<path id="Path_4" d="M16.6058 77.4393L2.16238 91.8827C4.04854 94.3127 6.99482 95.881 10.3022 95.881C15.9827 95.881 20.6043 91.2597 20.6043 85.5789C20.6041 82.2716 19.0358 79.3255 16.6058 77.4393Z" fill="var(--fill-0, #FD6A33)"/>
</g>
<g id="Group_2">
<path id="Path_5" d="M10.3022 75.2767C4.62158 75.2767 0 79.8981 0 85.5789C0 91.2597 4.62139 95.881 10.3022 95.881C15.9829 95.881 20.6043 91.2597 20.6043 85.5789C20.6043 79.8981 15.9827 75.2767 10.3022 75.2767Z" fill="var(--fill-0, #FF8C29)"/>
<path id="Path_6" d="M10.3022 3.26408C4.62158 3.26408 0 7.88547 0 13.5662C0 19.247 4.62139 23.8684 10.3022 23.8684C15.9829 23.8684 20.6043 19.247 20.6043 13.5662C20.6043 7.88547 15.9827 3.26408 10.3022 3.26408Z" fill="var(--fill-0, #FF8C29)"/>
</g>
<path id="Path_7" d="M93.5969 8.52611L85.519 0.447944C85.2319 0.161237 84.8427 0 84.4367 0C84.0309 0 83.6418 0.161425 83.3547 0.448319L46.5851 37.2363L38.4972 45.3242C38.3292 45.4924 38.2028 45.6969 38.1275 45.9223L34.0885 58.0397C33.9054 58.5895 34.0483 59.1957 34.4582 59.6056C34.7499 59.8972 35.141 60.0536 35.5404 60.0536C35.7022 60.0536 35.8655 60.0279 36.0241 59.9751L48.1411 55.9361C48.3666 55.861 48.5709 55.7346 48.7392 55.5664L68.9344 35.3711C68.9617 35.3438 68.9875 35.3159 69.0123 35.287L93.5971 10.6894C94.1943 10.0922 94.1941 9.12368 93.5969 8.52611Z" fill="var(--fill-0, #00AFC4)"/>
<path id="Path_8" d="M89.4559 4.38506L34.3546 59.4865C34.3876 59.5271 34.4205 59.5682 34.458 59.6056C34.7498 59.8972 35.1408 60.0536 35.5402 60.0536C35.702 60.0536 35.8653 60.0279 36.0239 59.9751L48.1409 55.9361C48.3664 55.861 48.5707 55.7346 48.739 55.5664L68.9342 35.3711C68.9615 35.3438 68.9873 35.3159 69.0121 35.287L93.5971 10.6894C94.1945 10.0919 94.1943 9.12331 93.5969 8.52592L89.4559 4.38506Z" fill="var(--fill-0, #008393)"/>
<path id="Path_9" d="M38.1275 45.9223L34.0885 58.0397C33.9054 58.5895 34.0483 59.1957 34.4582 59.6056C34.7499 59.8972 35.141 60.0536 35.5404 60.0536C35.7022 60.0536 35.8655 60.0279 36.0241 59.9751L48.1411 55.9361C48.6441 55.7685 49.0244 55.3522 49.1463 54.8361L39.2277 44.9171C38.7114 45.039 38.2953 45.4195 38.1275 45.9223Z" fill="var(--fill-0, #FFD1A9)"/>
<path id="Path_10" d="M33.0284 62.5466C32.637 62.5466 32.2452 62.3974 31.9464 62.0987C31.3488 61.5009 31.3488 60.5324 31.9464 59.9348L34.3943 57.4869C34.9921 56.8895 35.9606 56.8895 36.5582 57.4869C37.1558 58.0846 37.1558 59.0532 36.5582 59.6507L34.1102 62.0987C33.8116 62.3972 33.4198 62.5466 33.0284 62.5466Z" fill="var(--fill-0, #365558)"/>
</g>
</svg>
