<svg preserveAspectRatio="none" width="100%" height="100%" overflow="visible" style="display: block;" viewBox="0 0 71.911 95.881" fill="none" xmlns="http://www.w3.org/2000/svg">
<g id="book-2">
<rect id="Rectangle" x="2.53403" y="70.8725" width="67.3791" height="13.7318" fill="var(--fill-0, #EFF0F2)"/>
<path id="Path" fill-rule="evenodd" clip-rule="evenodd" d="M23.9704 81.9003H7.98834C6.88522 81.9003 5.99294 81.0051 5.99294 79.9019C5.99294 78.7986 6.88541 77.9034 7.98834 77.9034H23.9704C25.0736 77.9034 25.9658 78.7986 25.9658 79.9019C25.9658 81.0051 25.0736 81.9003 23.9704 81.9003Z" fill="var(--fill-0, #BFC2CC)"/>
<path id="Path_2" fill-rule="evenodd" clip-rule="evenodd" d="M7.98815 75.9079H69.9124C71.0155 75.9079 71.911 75.0125 71.911 73.9094V1.99858C71.911 0.895464 71.0155 0.000187414 69.9124 0.000187414H7.98815C3.57567 0.000187414 0 3.57867 0 7.99134C0 7.99134 0 7.99134 0 7.99433V73.9095C0 73.9242 0 73.936 0 73.9506V73.9506V79.9023C0 84.3148 3.57567 87.8933 7.98815 87.8933H69.9124V87.8933C71.0155 87.8933 71.911 86.998 71.911 85.8949C71.911 84.7917 71.0155 83.8965 69.9124 83.8965H69.9094H7.98815C5.78772 83.8965 3.99398 82.1055 3.99398 79.9023C3.99417 77.6985 5.78772 75.9079 7.98815 75.9079Z" fill="var(--fill-0, #7E8599)"/>
<path id="Path_3" fill-rule="evenodd" clip-rule="evenodd" d="M7.98815 75.9079H11.9853V0H7.98834C3.57605 0 0.000374828 3.57848 0.000374828 7.99115C0.000374828 7.99115 0.000374828 7.99115 0.000374828 7.99415V73.9094C0.000374828 73.924 0.000374828 73.9358 0.000374828 73.9504V73.9504V79.9021C0.000374828 84.3146 3.57605 87.8931 7.98853 87.8931H11.9853V83.8963H7.98834C5.78791 83.8963 3.99417 82.1054 3.99417 79.9021C3.99417 77.6985 5.78772 75.9079 7.98815 75.9079Z" fill="var(--fill-0, #5E6780)"/>
<path id="Path_4" fill-rule="evenodd" clip-rule="evenodd" d="M23.9704 95.881L15.9793 91.8869L7.98815 95.881V79.9019H23.9704V95.881Z" fill="var(--fill-0, #00A999)"/>
<path id="Path_5" fill-rule="evenodd" clip-rule="evenodd" d="M39.9497 22.5686L44.8887 32.5729L55.9289 34.1793L47.9407 41.9656L49.8252 52.9647L39.9497 47.7709L30.0742 52.9647L31.9586 41.9656L23.9704 34.1793L35.0105 32.5729L39.9497 22.5686Z" fill="var(--fill-0, #FFBB38)"/>
</g>
</svg>
