<svg preserveAspectRatio="none" width="100%" height="100%" overflow="visible" style="display: block;" viewBox="0 0 85.3341 69.0344" fill="none" xmlns="http://www.w3.org/2000/svg">
<g id="communication">
<path id="Path" fill-rule="evenodd" clip-rule="evenodd" d="M78.6225 0H71.9108V55.611H78.6225C82.3139 55.611 85.3341 52.778 85.3341 49.3155V6.29554C85.3341 2.83297 82.3139 0 78.6225 0Z" fill="var(--fill-0, #FFBB38)"/>
<path id="Path_2" fill-rule="evenodd" clip-rule="evenodd" d="M78.6225 49.9174V6.37238C78.6225 2.86755 75.7921 0 72.3327 0H6.28975C2.83037 0 0 2.86755 0 6.37238V49.9172C0 53.422 2.83037 56.2896 6.28975 56.2896H19.3936L26.7317 69.0344L34.0699 56.2896H72.3327C75.7921 56.2898 78.6225 53.4222 78.6225 49.9174Z" fill="var(--fill-0, #FFBB38)"/>
<g id="Group">
<path id="Path_3" d="M66.4842 20.4379H19.8087C18.9299 20.4379 18.2174 19.7262 18.2174 18.8483C18.2174 17.9704 18.9299 17.2586 19.8087 17.2586H66.4842C67.363 17.2586 68.0755 17.9704 68.0755 18.8483C68.0755 19.7262 67.363 20.4379 66.4842 20.4379Z" fill="var(--fill-0, white)"/>
<path id="Path_4" d="M66.4842 28.9158H19.8087C18.9299 28.9158 18.2174 28.204 18.2174 27.3261C18.2174 26.4482 18.9299 25.7364 19.8087 25.7364H66.4842C67.363 25.7364 68.0755 26.4482 68.0755 27.3261C68.0755 28.2042 67.363 28.9158 66.4842 28.9158Z" fill="var(--fill-0, white)"/>
<path id="Path_5" d="M45.2681 37.3936H19.8087C18.9299 37.3936 18.2174 36.6818 18.2174 35.8039C18.2174 34.926 18.9299 34.2143 19.8087 34.2143H45.2681C46.1469 34.2143 46.8594 34.926 46.8594 35.8039C46.8592 36.682 46.1469 37.3936 45.2681 37.3936Z" fill="var(--fill-0, white)"/>
</g>
</g>
</svg>
